<svg xmlns="http://www.w3.org/2000/svg" width="48" height="48"><path fill="#FFFFFF" d="m29.656 23.895 2.828-2.829L24 12.582l-8.484 8.484 2.828 2.829L22 20.238v15.075h4V20.238Zm0 0"/><path fill="#FFFFFF" fill-rule="evenodd" d="M39.555 8.445c-8.59-8.593-22.52-8.593-31.11 0-8.593 8.59-8.593 22.52 0 31.11 8.59 8.593 22.52 8.593 31.11 0 8.593-8.59 8.593-22.52 0-31.11Zm-2.828 2.828A17.984 17.984 0 0 0 24 6a17.984 17.984 0 0 0-12.727 5.273A17.984 17.984 0 0 0 6 24c0 4.773 1.895 9.352 5.273 12.727A17.984 17.984 0 0 0 24 42c4.773 0 9.352-1.895 12.727-5.273A17.984 17.984 0 0 0 42 24c0-4.773-1.895-9.352-5.273-12.727Zm0 0"/></svg>
