<svg width="62" height="62" viewBox="0 0 62 62" fill="none" xmlns="http://www.w3.org/2000/svg">
<path d="M4.76788 53.849H6.76374C7.67179 53.849 8.33093 53.9778 8.74116 54.2353C9.15601 54.4929 9.35882 54.9068 9.35882 55.4678C9.35882 55.8495 9.26663 56.1623 9.08687 56.406C8.9071 56.6544 8.67202 56.8015 8.37241 56.8521V56.8935C8.77804 56.9855 9.07304 57.1511 9.2528 57.3994C9.43257 57.6477 9.52015 57.9789 9.52015 58.3882C9.52015 58.9722 9.30812 59.4275 8.88866 59.754C8.4646 60.0806 7.89304 60.2461 7.16476 60.2461H4.76788V53.849ZM6.12765 56.383H6.91585C7.2846 56.383 7.55195 56.3232 7.71788 56.2129C7.88382 56.0979 7.96679 55.9093 7.96679 55.6472C7.96679 55.4035 7.8746 55.2287 7.69484 55.1183C7.51507 55.0125 7.22929 54.962 6.8421 54.962H6.12765V56.383ZM6.12765 57.4592V59.124H7.01265C7.38601 59.124 7.66257 59.055 7.84234 58.9124C8.0221 58.7653 8.10968 58.5491 8.10968 58.2548C8.10968 57.7259 7.73171 57.4592 6.97116 57.4592H6.12765ZM16.6186 57.0361C16.6186 58.0984 16.3559 58.9124 15.8304 59.4781C15.3049 60.0484 14.549 60.3335 13.5672 60.3335C12.5854 60.3335 11.8341 60.0484 11.304 59.4781C10.7785 58.9124 10.5158 58.0938 10.5158 57.0315C10.5158 55.9645 10.7785 55.1505 11.3086 54.5894C11.8341 54.0284 12.5946 53.7478 13.5764 53.7478C14.5628 53.7478 15.3141 54.033 15.8396 54.5986C16.3605 55.1643 16.6186 55.9783 16.6186 57.0361ZM11.9401 57.0361C11.9401 57.7535 12.0784 58.2916 12.3503 58.6503C12.6223 59.0136 13.0279 59.193 13.5672 59.193C14.6504 59.193 15.1943 58.4755 15.1943 57.0361C15.1943 55.5966 14.655 54.8792 13.5764 54.8792C13.0371 54.8792 12.6269 55.0585 12.3549 55.4218C12.0784 55.7852 11.9401 56.3232 11.9401 57.0361ZM23.7677 57.0361C23.7677 58.0984 23.505 58.9124 22.9795 59.4781C22.4494 60.0484 21.6981 60.3335 20.7163 60.3335C19.7345 60.3335 18.9786 60.0484 18.4531 59.4781C17.9276 58.9124 17.6649 58.0938 17.6649 57.0315C17.6649 55.9645 17.9276 55.1505 18.4577 54.5894C18.9832 54.0284 19.7391 53.7478 20.7255 53.7478C21.7073 53.7478 22.4633 54.033 22.9841 54.5986C23.505 55.1643 23.7677 55.9783 23.7677 57.0361ZM19.0892 57.0361C19.0892 57.7535 19.2229 58.2916 19.4948 58.6503C19.7668 59.0136 20.1724 59.193 20.7163 59.193C21.7995 59.193 22.3434 58.4755 22.3434 57.0361C22.3434 55.5966 21.8041 54.8792 20.7255 54.8792C20.1816 54.8792 19.776 55.0585 19.4994 55.4218C19.2275 55.7852 19.0892 56.3232 19.0892 57.0361ZM27.5658 60.2461H26.2107V54.9757H24.4683V53.849H29.3082V54.9757H27.5658V60.2461ZM34.0789 58.4663C34.0789 59.0458 33.8715 59.5011 33.452 59.8322C33.0372 60.168 32.4564 60.3335 31.7143 60.3335C31.0321 60.3335 30.4283 60.2047 29.8982 59.9472V58.6871C30.3315 58.8803 30.7002 59.0136 30.9998 59.0964C31.2994 59.1746 31.5714 59.2114 31.8203 59.2114C32.1199 59.2114 32.3458 59.1562 32.5071 59.0412C32.6684 58.9308 32.7468 58.7607 32.7468 58.5353C32.7468 58.4112 32.7099 58.2962 32.6408 58.1996C32.5716 58.103 32.4656 58.0065 32.3319 57.9191C32.1937 57.8271 31.9171 57.6845 31.5023 57.4868C31.1105 57.3028 30.8155 57.1235 30.6219 56.9579C30.4237 56.7877 30.2669 56.59 30.1517 56.3646C30.0319 56.1393 29.9766 55.8771 29.9766 55.5782C29.9766 55.0125 30.1655 54.5664 30.5527 54.2445C30.9353 53.918 31.4654 53.757 32.1476 53.757C32.4794 53.757 32.7975 53.7984 33.0971 53.8766C33.4013 53.9548 33.7194 54.0652 34.0466 54.2077L33.6087 55.2609C33.2676 55.1229 32.9865 55.0263 32.7606 54.9712C32.5394 54.916 32.3181 54.8884 32.1015 54.8884C31.8433 54.8884 31.6451 54.9482 31.5115 55.0677C31.3732 55.1873 31.3041 55.3437 31.3041 55.5322C31.3041 55.6518 31.3317 55.7576 31.387 55.845C31.4423 55.9369 31.5299 56.0243 31.6498 56.1071C31.7742 56.1899 32.06 56.337 32.5117 56.5532C33.1109 56.8383 33.5212 57.1281 33.747 57.4132C33.9683 57.6983 34.0789 58.0524 34.0789 58.4663ZM37.7111 60.2461H36.3559V54.9757H34.6136V53.849H39.4534V54.9757H37.7111V60.2461ZM41.7996 57.7903V60.2461H40.4398V53.849H42.3066C43.1778 53.849 43.8231 54.0054 44.2426 54.3227C44.6574 54.64 44.8694 55.1183 44.8694 55.7668C44.8694 56.1393 44.7634 56.475 44.556 56.7693C44.3486 57.0637 44.0536 57.2936 43.6756 57.4592C44.639 58.894 45.2705 59.823 45.5608 60.2461H44.0536L42.5233 57.7903H41.7996ZM41.7996 56.6866H42.2375C42.6662 56.6866 42.9842 56.6176 43.1916 56.475C43.3944 56.3324 43.4958 56.1071 43.4958 55.799C43.4958 55.4954 43.3898 55.2793 43.1824 55.1505C42.975 55.0217 42.6523 54.962 42.2098 54.962H41.7996V56.6866ZM50.2901 60.2461L49.8245 58.7239H47.4876L47.0266 60.2461H45.5608L47.824 53.8214H49.4834L51.7558 60.2461H50.2901ZM49.5019 57.5834C49.0732 56.2037 48.8289 55.4264 48.7782 55.2425C48.7229 55.0631 48.686 54.9206 48.6583 54.8148C48.5662 55.1873 48.2896 56.1117 47.8333 57.5834H49.5019ZM56.9921 55.845C56.9921 56.5302 56.7755 57.0591 56.3422 57.4224C55.9135 57.7857 55.3005 57.9697 54.503 57.9697H53.9223V60.2461H52.5625V53.849H54.609C55.388 53.849 55.978 54.0146 56.3837 54.3503C56.7893 54.686 56.9921 55.1827 56.9921 55.845ZM53.9223 56.8567H54.3694C54.7888 56.8567 55.0976 56.7785 55.3097 56.613C55.5171 56.4474 55.6185 56.2083 55.6185 55.8909C55.6185 55.5736 55.5309 55.3391 55.3558 55.1873C55.1852 55.0355 54.9133 54.962 54.5399 54.962H53.9223V56.8567ZM35.6507 27.1476C34.7012 26.8348 33.3322 26.7843 31.5437 26.7843H25.1275V36.35H32.0416C33.24 36.35 34.0835 36.2305 34.5675 36.1431C35.4248 35.9867 36.1393 35.697 36.7108 35.3383C37.287 34.9842 37.7572 34.4461 38.1305 33.7654C38.4993 33.0848 38.6837 32.2892 38.6837 31.397C38.6837 30.353 38.4163 29.493 37.8816 28.725C37.3469 27.9524 36.6002 27.4603 35.6507 27.1476ZM34.6643 23.0269C35.6092 22.7464 36.319 22.2405 36.7984 21.592C37.2778 20.9436 37.5175 20.1066 37.5175 19.127C37.5175 18.198 37.2916 17.3702 36.8445 16.662C36.402 15.9537 35.7613 15.4755 34.9316 15.2133C34.1019 14.9558 32.6823 14.827 30.6633 14.827H25.1275V23.4362H31.1243C32.7698 23.4362 33.9498 23.2477 34.6643 23.0269ZM56.2869 7.71245C56.2869 3.98271 53.2539 0.956604 49.5157 0.956604H12.2443C8.50609 0.956604 5.47312 3.98271 5.47312 7.71245V44.8995C5.47312 48.6292 8.50609 51.6553 12.2443 51.6553H49.5157C53.2539 51.6553 56.2869 48.6292 56.2869 44.8995V7.71245ZM41.6982 35.0439C41.1451 36.1707 40.4583 37.0399 39.6424 37.6515C38.8265 38.2632 37.7987 38.8197 36.568 39.1324C35.3373 39.4451 33.83 39.6981 32.0416 39.6981H21.2925V11.479H31.871C34.0144 11.479 35.7337 11.7733 37.0289 12.3436C38.3241 12.9092 39.3382 13.7876 40.0711 14.965C40.8086 16.1423 41.1727 17.3794 41.1727 18.6625C41.1727 19.8582 40.8455 20.9896 40.1955 22.0473C39.5456 23.1051 38.5638 23.9559 37.2501 24.6044C38.9464 25.101 40.2508 25.9518 41.1635 27.1476C42.0762 28.3433 42.5325 29.7552 42.5325 31.3878C42.5325 32.6985 42.2559 33.9172 41.6982 35.0439Z" fill="#5B4282"/>
</svg>
