<svg width="17" height="16" viewBox="0 0 17 16" fill="none" xmlns="http://www.w3.org/2000/svg">
<path d="M9.48569 8.35398L15.7288 2.45452C16.1351 2.07079 16.1351 1.45035 15.7288 1.06661C15.3227 0.682875 14.6661 0.682875 14.26 1.06661L8.01668 6.96607L1.77354 1.06661C1.36724 0.682875 0.710819 0.682875 0.304719 1.06661C-0.101573 1.45035 -0.101573 2.07079 0.304719 2.45452L6.54786 8.35398L0.304719 14.2534C-0.101573 14.6372 -0.101573 15.2576 0.304719 15.6414C0.507109 15.8328 0.773209 15.929 1.03913 15.929C1.30505 15.929 1.57096 15.8328 1.77354 15.6414L8.01668 9.74191L14.26 15.6414C14.4626 15.8328 14.7285 15.929 14.9944 15.929C15.2603 15.929 15.5263 15.8328 15.7288 15.6414C16.1351 15.2576 16.1351 14.6372 15.7288 14.2534L9.48569 8.35398Z" fill="white"/>
</svg>
