<svg width="69" height="64" viewBox="0 0 69 64" fill="none" xmlns="http://www.w3.org/2000/svg">
<path d="M59.0798 6.57709H10.8881L15.1394 51.2934L34.9839 56.5524L54.8285 51.2921L59.0798 6.57709Z" fill="#0277BD"/>
<path d="M34.9839 10.5233V52.4748L50.859 48.2683L54.3995 10.5233H34.9839Z" fill="#039BE5"/>
<path d="M47.8823 17.0965H34.9839V22.3594H41.9315L41.5025 27.6185H34.9839V32.8789H41.2207L40.793 38.7963L34.9839 40.6386V46.1644L46.1829 42.7425L47.17 27.6185L47.8823 17.0965Z" fill="white"/>
<path d="M34.9839 17.0965V22.3594H22.3688L21.9454 17.0965H34.9839ZM28.4653 27.6198L28.7472 32.8789H34.9839V27.6198H28.4653ZM29.029 35.511H23.3615L23.785 42.7425L34.9839 46.1644V40.6386L29.1748 38.7963L29.029 35.511Z" fill="#EEEEEE"/>
</svg>
