<svg width="18" height="17" fill="none" xmlns="http://www.w3.org/2000/svg"><path d="M15.75 2.125H2.25c-.597 0-1.169.225-1.59.623C.238 3.146 0 3.687 0 4.25v8.5c0 1.172 1.01 2.125 2.25 2.125h13.5c.597 0 1.169-.225 1.59-.623A2.07 2.07 0 0 0 18 12.75v-8.5a2.07 2.07 0 0 0-.66-1.502 2.321 2.321 0 0 0-1.59-.623Zm-3.702 5.672 4.76-3.856c.034.098.067.2.067.309v8.5c0 .074-.03.14-.045.207l-4.782-5.16Zm3.702-4.61c.074 0 .14.028.212.04L9 8.863 2.04 3.227c.07-.012.136-.04.21-.04h13.5Zm-14.58 9.77c-.016-.07-.044-.133-.044-.207v-8.5c0-.11.031-.21.065-.309l4.76 3.852-4.781 5.164Zm1.08.855c-.111 0-.215-.03-.323-.062l4.881-5.262 1.828 1.477a.573.573 0 0 0 .728 0l1.828-1.477 4.88 5.262c-.103.031-.207.063-.322.063l-13.5-.001Z" fill="#949494"/></svg>