<?xml version="1.0" encoding="UTF-8"?>
<svg xmlns="http://www.w3.org/2000/svg" xmlns:xlink="http://www.w3.org/1999/xlink" width="60px" height="60px" viewBox="0 0 60 60" version="1.1">
<g id="surface1">
<path style=" stroke:none;fill-rule:nonzero;fill:rgb(100%,100%,100%);fill-opacity:1;" d="M 56.820312 29.476562 C 56.820312 44.230469 44.726562 56.191406 29.808594 56.191406 C 14.890625 56.191406 2.792969 44.230469 2.792969 29.476562 C 2.792969 14.722656 14.890625 2.765625 29.808594 2.765625 C 44.726562 2.765625 56.820312 14.722656 56.820312 29.476562 Z M 56.820312 29.476562 "/>
<path style=" stroke:none;fill-rule:nonzero;fill:rgb(50.196078%,84.705882%,100%);fill-opacity:1;" d="M 56.820312 29.476562 C 56.820312 27.011719 56.457031 24.632812 55.824219 22.363281 C 51.84375 12.507812 42.125 5.527344 30.738281 5.527344 C 15.820312 5.527344 3.726562 17.488281 3.726562 32.242188 C 3.726562 34.707031 4.089844 37.085938 4.722656 39.355469 C 8.703125 49.210938 18.421875 56.191406 29.808594 56.191406 C 44.726562 56.191406 56.820312 44.230469 56.820312 29.476562 Z M 56.820312 29.476562 "/>
<path style=" stroke:none;fill-rule:nonzero;fill:rgb(100%,100%,100%);fill-opacity:1;" d="M 39.027344 54.5625 C 38.746094 54.660156 38.441406 54.695312 38.144531 54.652344 C 37.84375 54.613281 37.5625 54.503906 37.316406 54.332031 C 37.070312 54.164062 36.867188 53.933594 36.730469 53.671875 C 36.589844 53.40625 36.519531 53.113281 36.519531 52.816406 C 36.527344 50.558594 36.539062 47.882812 36.539062 46.015625 C 36.539062 43.515625 35.671875 41.882812 34.707031 41.054688 C 40.726562 40.386719 47.039062 38.121094 47.039062 27.820312 C 47.039062 24.890625 45.996094 22.492188 44.261719 20.617188 C 44.539062 19.941406 45.46875 17.214844 43.996094 13.519531 C 43.996094 13.519531 41.726562 12.804688 36.570312 16.269531 C 34.414062 15.671875 32.105469 15.378906 29.808594 15.367188 C 27.511719 15.378906 25.203125 15.671875 23.042969 16.269531 C 17.886719 12.804688 15.617188 13.519531 15.617188 13.519531 C 14.148438 17.214844 15.074219 19.941406 15.355469 20.625 C 13.625 22.5 12.574219 24.890625 12.574219 27.820312 C 12.574219 38.097656 18.882812 40.394531 24.878906 41.074219 C 24.105469 41.742188 23.40625 42.929688 23.164062 44.65625 C 21.625 45.34375 17.714844 46.527344 15.296875 42.429688 C 15.296875 42.429688 13.871094 39.859375 11.164062 39.667969 C 11.164062 39.667969 8.519531 39.632812 10.976562 41.296875 C 10.976562 41.296875 12.746094 42.125 13.972656 45.222656 C 13.972656 45.222656 15.558594 50.4375 23.074219 48.816406 L 23.097656 52.8125 C 23.101562 54.089844 21.816406 55 20.597656 54.566406 C 17.949219 53.613281 15.46875 52.261719 13.242188 50.550781 C 17.816406 54.070312 23.558594 56.191406 29.808594 56.191406 C 35.914062 56.191406 41.53125 54.160156 46.0625 50.777344 C 43.921875 52.378906 41.550781 53.652344 39.027344 54.5625 Z M 39.027344 54.5625 "/>
<path style=" stroke:none;fill-rule:nonzero;fill:rgb(27.058824%,35.294118%,39.215686%);fill-opacity:1;" d="M 21.226562 55.59375 C 20.90625 55.59375 20.589844 55.542969 20.285156 55.429688 C 8.742188 51.292969 1.355469 40.367188 1.890625 28.242188 C 1.898438 28.121094 1.925781 28.003906 1.976562 27.894531 C 2.03125 27.785156 2.101562 27.6875 2.191406 27.605469 C 2.28125 27.523438 2.386719 27.460938 2.503906 27.417969 C 2.617188 27.375 2.738281 27.359375 2.859375 27.363281 C 2.984375 27.367188 3.101562 27.398438 3.214844 27.449219 C 3.324219 27.5 3.421875 27.570312 3.507812 27.660156 C 3.589844 27.75 3.652344 27.851562 3.695312 27.96875 C 3.734375 28.082031 3.753906 28.199219 3.75 28.320312 C 3.25 39.636719 10.152344 49.835938 20.917969 53.695312 C 21.054688 53.746094 21.207031 53.761719 21.355469 53.742188 C 21.503906 53.722656 21.640625 53.664062 21.761719 53.578125 C 21.886719 53.492188 21.988281 53.378906 22.058594 53.246094 C 22.128906 53.113281 22.167969 52.964844 22.167969 52.8125 L 22.152344 49.914062 C 14.832031 50.945312 13.101562 45.539062 13.082031 45.480469 C 12.058594 42.890625 10.582031 42.125 10.570312 42.121094 C 9.933594 41.695312 8.710938 40.875 9.058594 39.792969 C 9.371094 38.820312 10.644531 38.757812 11.175781 38.742188 C 14.410156 38.96875 16.050781 41.863281 16.117188 41.984375 C 17.898438 45.011719 20.613281 44.648438 22.332031 44 C 22.480469 43.214844 22.757812 42.457031 23.148438 41.757812 C 17.796875 40.867188 11.644531 38.125 11.644531 27.8125 C 11.644531 24.992188 12.53125 22.507812 14.296875 20.417969 C 13.90625 19.175781 13.421875 16.523438 14.746094 13.1875 C 14.796875 13.0625 14.875 12.945312 14.976562 12.851562 C 15.078125 12.757812 15.199219 12.6875 15.332031 12.648438 C 15.601562 12.558594 18.078125 11.917969 23.210938 15.273438 C 25.367188 14.726562 27.582031 14.449219 29.808594 14.449219 C 32.105469 14.457031 34.316406 14.738281 36.40625 15.273438 C 41.542969 11.917969 44.007812 12.558594 44.28125 12.648438 C 44.410156 12.6875 44.53125 12.757812 44.628906 12.851562 C 44.730469 12.945312 44.808594 13.058594 44.859375 13.183594 C 46.195312 16.523438 45.710938 19.175781 45.320312 20.421875 C 47.078125 22.507812 47.972656 24.988281 47.972656 27.820312 C 47.972656 38.125 41.808594 40.855469 36.449219 41.742188 C 37.109375 42.890625 37.46875 44.371094 37.46875 46.015625 C 37.46875 47.882812 37.460938 50.5625 37.449219 52.820312 C 37.449219 53.128906 37.597656 53.398438 37.847656 53.578125 C 37.972656 53.667969 38.117188 53.722656 38.265625 53.742188 C 38.417969 53.765625 38.570312 53.746094 38.714844 53.695312 C 48.988281 50.003906 55.890625 40.269531 55.890625 29.476562 C 55.890625 22.363281 53.019531 15.734375 47.816406 10.8125 C 42.605469 5.902344 35.777344 3.378906 28.558594 3.714844 C 28.046875 3.753906 27.605469 3.339844 27.585938 2.839844 C 27.578125 2.71875 27.597656 2.597656 27.636719 2.480469 C 27.679688 2.367188 27.742188 2.261719 27.824219 2.175781 C 27.90625 2.085938 28.007812 2.011719 28.117188 1.960938 C 28.230469 1.910156 28.351562 1.878906 28.472656 1.875 C 36.207031 1.523438 43.523438 4.222656 49.097656 9.484375 C 54.683594 14.753906 57.753906 21.855469 57.753906 29.476562 C 57.753906 41.042969 50.359375 51.46875 39.351562 55.425781 C 38.488281 55.730469 37.527344 55.609375 36.78125 55.082031 C 36.410156 54.828125 36.113281 54.488281 35.90625 54.089844 C 35.699219 53.695312 35.589844 53.257812 35.59375 52.8125 C 35.601562 50.550781 35.613281 47.882812 35.613281 46.015625 C 35.613281 43.328125 34.550781 42.136719 34.097656 41.75 C 33.960938 41.632812 33.863281 41.476562 33.8125 41.304688 C 33.761719 41.132812 33.765625 40.949219 33.816406 40.78125 C 33.871094 40.609375 33.972656 40.457031 34.113281 40.34375 C 34.253906 40.226562 34.421875 40.15625 34.601562 40.136719 C 40.292969 39.511719 46.109375 37.558594 46.109375 27.820312 C 46.109375 25.277344 45.253906 23.0625 43.574219 21.242188 C 43.457031 21.113281 43.378906 20.957031 43.347656 20.785156 C 43.316406 20.613281 43.335938 20.4375 43.402344 20.277344 C 43.664062 19.648438 44.375 17.441406 43.324219 14.382812 C 42.535156 14.40625 40.519531 14.730469 37.097656 17.035156 C 36.988281 17.113281 36.859375 17.164062 36.726562 17.183594 C 36.589844 17.207031 36.453125 17.199219 36.324219 17.160156 C 34.304688 16.605469 32.050781 16.304688 29.808594 16.289062 C 27.609375 16.292969 25.417969 16.585938 23.296875 17.160156 C 23.167969 17.195312 23.03125 17.207031 22.894531 17.183594 C 22.761719 17.164062 22.632812 17.113281 22.523438 17.035156 C 19.113281 14.742188 17.101562 14.40625 16.289062 14.386719 C 15.242188 17.445312 15.957031 19.644531 16.214844 20.277344 C 16.28125 20.4375 16.300781 20.613281 16.269531 20.785156 C 16.238281 20.957031 16.160156 21.113281 16.039062 21.242188 C 14.359375 23.066406 13.503906 25.28125 13.503906 27.820312 C 13.503906 37.550781 19.304688 39.515625 24.984375 40.15625 C 25.164062 40.175781 25.332031 40.25 25.46875 40.363281 C 25.605469 40.476562 25.710938 40.628906 25.761719 40.796875 C 25.816406 40.96875 25.820312 41.148438 25.773438 41.320312 C 25.722656 41.492188 25.625 41.644531 25.492188 41.761719 C 25.074219 42.125 24.332031 43.003906 24.082031 44.785156 C 24.0625 44.9375 24 45.085938 23.90625 45.210938 C 23.8125 45.335938 23.6875 45.433594 23.542969 45.496094 C 22.148438 46.121094 17.367188 47.773438 14.492188 42.898438 C 14.472656 42.859375 13.515625 41.199219 11.800781 40.710938 C 12.410156 41.109375 13.8125 42.28125 14.84375 44.882812 C 14.921875 45.128906 16.34375 49.320312 22.875 47.917969 C 23.007812 47.886719 23.148438 47.886719 23.285156 47.917969 C 23.421875 47.949219 23.546875 48.007812 23.65625 48.09375 C 23.875 48.269531 24.003906 48.53125 24.003906 48.808594 L 24.027344 52.808594 C 24.027344 53.710938 23.585938 54.566406 22.832031 55.085938 C 22.355469 55.421875 21.796875 55.59375 21.226562 55.59375 Z M 21.226562 55.59375 "/>
<path style=" stroke:none;fill-rule:nonzero;fill:rgb(27.058824%,35.294118%,39.215686%);fill-opacity:1;" d="M 29.320312 57.113281 C 13.925781 57.113281 1.863281 44.972656 1.863281 29.476562 C 1.863281 22.789062 4.167969 16.375 8.355469 11.414062 C 8.433594 11.324219 8.527344 11.246094 8.636719 11.1875 C 8.746094 11.132812 8.863281 11.097656 8.984375 11.085938 C 9.105469 11.078125 9.230469 11.089844 9.347656 11.125 C 9.464844 11.164062 9.570312 11.222656 9.664062 11.300781 C 9.757812 11.375 9.835938 11.472656 9.894531 11.578125 C 9.949219 11.683594 9.984375 11.800781 9.996094 11.921875 C 10.007812 12.042969 9.996094 12.164062 9.957031 12.28125 C 9.921875 12.394531 9.863281 12.503906 9.785156 12.597656 C 5.878906 17.222656 3.726562 23.222656 3.726562 29.476562 C 3.726562 43.945312 14.964844 55.269531 29.320312 55.269531 C 43.972656 55.269531 55.890625 43.699219 55.890625 29.476562 C 55.890625 15.257812 43.972656 3.683594 29.320312 3.683594 C 24.769531 3.683594 20.355469 4.828125 16.542969 6.984375 C 16.328125 7.105469 16.074219 7.136719 15.835938 7.074219 C 15.597656 7.007812 15.394531 6.855469 15.269531 6.644531 C 15.148438 6.433594 15.117188 6.179688 15.183594 5.945312 C 15.246094 5.710938 15.402344 5.507812 15.617188 5.386719 C 19.707031 3.066406 24.449219 1.839844 29.320312 1.839844 C 44.996094 1.839844 57.753906 14.238281 57.753906 29.476562 C 57.753906 44.714844 44.996094 57.113281 29.320312 57.113281 Z M 29.320312 57.113281 "/>
<path style=" stroke:none;fill-rule:nonzero;fill:rgb(27.058824%,35.294118%,39.215686%);fill-opacity:1;" d="M 14.050781 8.386719 C 14.035156 8.617188 13.929688 8.835938 13.757812 8.992188 C 13.585938 9.152344 13.359375 9.242188 13.121094 9.242188 C 12.886719 9.242188 12.660156 9.152344 12.484375 8.992188 C 12.3125 8.835938 12.207031 8.617188 12.191406 8.386719 C 12.191406 8.140625 12.289062 7.90625 12.464844 7.734375 C 12.640625 7.5625 12.875 7.464844 13.121094 7.464844 C 13.636719 7.464844 14.054688 7.878906 14.054688 8.386719 Z M 14.050781 8.386719 "/>
</g>
</svg>
