<svg width="48" height="50" viewBox="0 0 48 50" fill="none" xmlns="http://www.w3.org/2000/svg">
<path d="M45.4572 24.5647C45.4572 36.8591 35.7814 46.8264 23.8465 46.8264C11.9116 46.8264 2.23572 36.8591 2.23572 24.5647C2.23572 12.2703 11.9116 2.30307 23.8465 2.30307C35.7814 2.30307 45.4572 12.2703 45.4572 24.5647Z" fill="white"/>
<path d="M45.4573 24.5647C45.4573 22.5093 45.1653 20.5271 44.6591 18.6351C41.4764 10.4225 33.7014 4.60614 24.5921 4.60614C12.6572 4.60614 2.98132 14.5734 2.98132 26.8678C2.98132 28.9232 3.27332 30.9054 3.77945 32.7974C6.96223 41.0101 14.7362 46.8264 23.8465 46.8264C35.7814 46.8264 45.4573 36.8591 45.4573 24.5647Z" fill="#80D8FF"/>
<path d="M31.2224 45.4678C30.9959 45.5516 30.7533 45.5781 30.5149 45.545C30.2765 45.5119 30.0493 45.4202 29.8525 45.2776C29.6557 45.1351 29.4951 44.9458 29.3842 44.7259C29.2733 44.506 29.2154 44.2618 29.2154 44.014C29.2222 42.131 29.23 39.9022 29.23 38.3471C29.23 36.2636 28.5389 34.901 27.7661 34.2112C32.5801 33.6547 37.6327 31.7677 37.6327 23.1821C37.6327 20.7427 36.7956 18.7444 35.4086 17.1823C35.6325 16.6178 36.3742 14.3468 35.1955 11.2677C35.1955 11.2677 33.3822 10.6691 29.2572 13.5587C27.5305 13.0614 25.6832 12.8148 23.8465 12.8068C22.0098 12.8148 20.1624 13.0614 18.4358 13.5587C14.3108 10.6691 12.4936 11.2677 12.4936 11.2677C11.3188 14.3458 12.0605 16.6178 12.2843 17.1863C10.9003 18.7484 10.0603 20.7427 10.0603 23.1821C10.0603 31.7477 15.106 33.6627 19.9035 34.2272C19.2835 34.7867 18.7258 35.7743 18.5312 37.2151C17.2989 37.7866 14.1707 38.7742 12.2386 35.3592C12.2386 35.3592 11.0979 33.2165 8.93124 33.0561C8.93124 33.0561 6.81717 33.028 8.78232 34.4147C8.78232 34.4147 10.1975 35.1045 11.1777 37.6853C11.1777 37.6853 12.4479 42.0328 18.4582 40.6812L18.4776 44.01C18.4815 45.0758 17.4517 45.8348 16.4784 45.4718C14.3595 44.6791 12.3737 43.5506 10.5927 42.127C14.2544 45.0597 18.8465 46.8264 23.8465 46.8264C28.7326 46.8264 33.2264 45.1349 36.8501 42.3145C35.1366 43.6476 33.2399 44.7104 31.2224 45.4678Z" fill="white"/>
<path d="M16.9797 46.3291C16.7256 46.3291 16.4706 46.286 16.2273 46.1917C6.9953 42.7456 1.08331 33.6386 1.51352 23.535C1.51774 23.4345 1.54114 23.3358 1.58238 23.2446C1.62362 23.1534 1.6819 23.0714 1.75389 23.0034C1.82588 22.9354 1.91017 22.8826 2.00195 22.8482C2.09372 22.8137 2.19119 22.7982 2.28878 22.8026C2.38637 22.8069 2.48217 22.831 2.57072 22.8735C2.65926 22.916 2.73882 22.976 2.80484 23.0502C2.87087 23.1243 2.92207 23.2112 2.95551 23.3057C2.98896 23.4003 3.00401 23.5007 2.99979 23.6012C2.60073 33.032 8.12143 41.5314 16.7334 44.7469C16.8453 44.7895 16.9656 44.8028 17.0837 44.7856C17.2017 44.7685 17.3138 44.7214 17.4099 44.6486C17.5098 44.5772 17.5913 44.4818 17.6476 44.3708C17.7039 44.2597 17.7332 44.1362 17.733 44.011L17.7213 41.5946C11.8658 42.4559 10.4827 37.948 10.4671 37.9009C9.64566 35.7422 8.46696 35.1035 8.45626 35.1005C7.94623 34.7476 6.96901 34.0628 7.24641 33.1614C7.49753 32.3512 8.5166 32.2991 8.94195 32.2841C11.5281 32.4726 12.8391 34.8849 12.8936 34.9872C14.3186 37.5088 16.4891 37.207 17.8654 36.6666C17.9842 36.0117 18.2051 35.3809 18.5195 34.7987C14.2388 34.0547 9.31473 31.7707 9.31473 23.1781C9.31473 20.8279 10.0253 18.7564 11.4366 17.0138C11.1251 15.9791 10.7368 13.7703 11.7977 10.99C11.8385 10.8839 11.9015 10.7885 11.9823 10.7105C12.0631 10.6325 12.1595 10.5739 12.2649 10.5388C12.4819 10.4656 14.4627 9.93216 18.5691 12.7285C20.2935 12.2731 22.0664 12.0417 23.8465 12.0397C25.6832 12.0477 27.4546 12.2824 29.1239 12.7285C33.2342 9.93216 35.2071 10.4646 35.4242 10.5398C35.5287 10.5741 35.6245 10.6319 35.7046 10.7091C35.7848 10.7863 35.8472 10.8808 35.8875 10.9859C36.9562 13.7703 36.5688 15.9791 36.2564 17.0178C37.6628 18.7564 38.3782 20.8249 38.3782 23.1821C38.3782 31.7717 33.4464 34.0467 29.1579 34.7867C29.6864 35.7422 29.9755 36.9764 29.9755 38.347C29.9755 39.9011 29.9677 42.134 29.9599 44.018C29.9599 44.2727 30.0777 44.4993 30.2792 44.6496C30.3782 44.7225 30.493 44.7695 30.6135 44.7864C30.7341 44.8033 30.8569 44.7898 30.9712 44.7469C39.1919 41.6688 44.7117 33.5574 44.7117 24.5647C44.7117 18.6351 42.4156 13.1125 38.2527 9.01174C34.0859 4.91895 28.6216 2.81541 22.8469 3.09415C22.4361 3.12924 22.0857 2.78433 22.0672 2.36523C22.0624 2.26441 22.077 2.16361 22.1101 2.06862C22.1433 1.97364 22.1944 1.88635 22.2604 1.81179C22.3265 1.73723 22.4062 1.67687 22.495 1.63419C22.5838 1.59151 22.6799 1.56735 22.7778 1.56311C28.9642 1.26934 34.8188 3.51726 39.2786 7.90382C43.7461 12.2944 46.2028 18.212 46.2028 24.5647C46.2028 34.2031 40.2869 42.89 31.4813 46.1877C30.7892 46.4424 30.0213 46.3411 29.4236 45.9019C29.1294 45.6886 28.8895 45.4053 28.7241 45.0762C28.5588 44.747 28.4728 44.3816 28.4737 44.011C28.4815 42.126 28.4893 39.9021 28.4893 38.347C28.4893 36.1071 27.6405 35.1125 27.2794 34.7907C27.1696 34.6933 27.0897 34.565 27.0496 34.4215C27.0096 34.278 27.011 34.1256 27.0538 33.983C27.0966 33.8403 27.1788 33.7136 27.2905 33.6185C27.4021 33.5233 27.5383 33.4637 27.6824 33.4471C32.2336 32.9258 36.8871 31.2975 36.8871 23.1821C36.8871 21.0635 36.2029 19.2186 34.8606 17.7026C34.7654 17.5958 34.7017 17.4633 34.6769 17.3206C34.652 17.1778 34.6672 17.0307 34.7205 16.8965C34.9297 16.3751 35.4991 14.5343 34.6592 11.9846C34.0285 12.0046 32.4166 12.2753 29.6787 14.1974C29.5892 14.2609 29.4871 14.303 29.3799 14.3207C29.2726 14.3384 29.1629 14.3312 29.0586 14.2997C27.4429 13.8375 25.6413 13.5868 23.8465 13.5748C22.0866 13.578 20.3349 13.8218 18.6372 14.2997C18.5331 14.3309 18.4236 14.3378 18.3166 14.3202C18.2095 14.3025 18.1076 14.2606 18.0182 14.1974C15.2919 12.2864 13.6801 12.0046 13.0299 11.9886C12.1929 14.5383 12.7671 16.3711 12.9725 16.8965C13.0249 17.0309 13.0395 17.1778 13.0147 17.3203C12.9899 17.4628 12.9267 17.5953 12.8323 17.7026C11.4862 19.2226 10.802 21.0675 10.802 23.1821C10.802 31.2935 15.4447 32.9308 19.9872 33.4632C20.13 33.4811 20.2648 33.541 20.3753 33.6358C20.4859 33.7306 20.5675 33.8562 20.6105 33.9976C20.6534 34.139 20.6558 34.2902 20.6175 34.433C20.5791 34.5758 20.5015 34.7042 20.3941 34.8027C20.0593 35.1035 19.4665 35.8364 19.265 37.3213C19.2486 37.4495 19.2005 37.5712 19.1253 37.6748C19.0502 37.7784 18.9505 37.8603 18.8358 37.9129C17.7175 38.4333 13.8923 39.8119 11.5923 35.7472C11.5777 35.7151 10.8137 34.3335 9.44126 33.9254C9.92793 34.2583 11.0492 35.2338 11.8746 37.4036C11.9388 37.6071 13.0757 41.1003 18.2985 39.9302C18.4073 39.906 18.52 39.9068 18.6285 39.9324C18.7369 39.9581 18.8386 40.008 18.9263 40.0786C19.1015 40.223 19.2037 40.4426 19.2037 40.6732L19.2232 44.007C19.2232 44.7589 18.8699 45.4708 18.2654 45.906C17.8849 46.1847 17.4362 46.3291 16.9806 46.3291H16.9797Z" fill="#455A64"/>
<path d="M23.4552 47.5944C11.1397 47.5944 1.4892 37.4777 1.4892 24.5647C1.4892 18.991 3.33365 13.6459 6.68287 9.51305C6.74538 9.43543 6.82218 9.37131 6.90885 9.32438C6.99551 9.27745 7.09033 9.24864 7.18785 9.2396C7.28536 9.23056 7.38365 9.24147 7.47706 9.27171C7.57047 9.30195 7.65714 9.35092 7.73211 9.4158C7.80742 9.4802 7.86965 9.5593 7.91522 9.64853C7.96079 9.73777 7.98881 9.8354 7.99768 9.93582C8.00654 10.0362 7.99607 10.1375 7.96686 10.2337C7.93766 10.3299 7.8903 10.4193 7.8275 10.4966C4.70312 14.3538 2.98131 19.351 2.98131 24.5647C2.98131 36.6195 11.9729 46.0593 23.4552 46.0593C35.177 46.0593 44.7127 36.4159 44.7127 24.5647C44.7127 12.7135 35.177 3.07007 23.4552 3.07007C19.816 3.07007 16.2838 4.02258 13.2353 5.82032C13.0634 5.92036 12.8602 5.94678 12.6696 5.89388C12.4789 5.84099 12.3161 5.71302 12.2162 5.53758C12.1189 5.3604 12.0934 5.1508 12.1454 4.95438C12.1973 4.75797 12.3225 4.59064 12.4936 4.48881C15.7669 2.55672 19.558 1.53403 23.4552 1.53403C35.9975 1.53403 46.2019 11.8663 46.2019 24.5637C46.2019 37.2612 35.9975 47.5934 23.4552 47.5934V47.5944Z" fill="#455A64"/>
<path d="M11.2419 6.98741C11.2283 7.18126 11.144 7.3626 11.0058 7.49498C10.8677 7.62735 10.686 7.70094 10.4973 7.70094C10.3087 7.70094 10.127 7.62735 9.98886 7.49498C9.85072 7.3626 9.76636 7.18126 9.75275 6.98741C9.75377 6.78422 9.83251 6.58963 9.9719 6.44585C10.1113 6.30208 10.3001 6.22071 10.4973 6.21939C10.9081 6.21939 11.2429 6.5643 11.2429 6.98741H11.2419Z" fill="#455A64"/>
</svg>
