<svg width="31" height="60" viewBox="0 0 31 60" fill="none" xmlns="http://www.w3.org/2000/svg">
<g clip-path="url(#clip0_70_68)">
<path d="M24.9984 45.2744L23.3365 48.1228L22.8002 57.4064C22.8002 58.4341 19.4668 59.2674 15.3717 59.2674C11.2766 59.2674 7.94802 58.4341 7.94802 57.4064L7.26471 48.2105L5.50882 45.2744C10.3583 47.2752 20.3381 47.2065 24.9984 45.2744ZM1.93196 15.9512L3.53239 30.4765C4.22896 28.1615 5.98003 25.0405 8.23967 24.091C8.97842 23.7769 9.73645 23.7769 10.4378 24.193C11.0549 24.5403 11.5683 25.2716 11.6297 25.5585C11.7707 26.3135 11.3935 26.6146 11.0971 26.6146C10.7488 26.6146 10.4764 26.0812 10.2968 25.7671C9.8172 24.9196 9.08688 24.8876 8.31077 25.4435C7.50092 26.022 6.7947 26.9939 6.29578 27.8379C5.68584 28.8639 5.21121 29.962 4.88335 31.1059C4.70861 31.7543 4.54471 32.7915 4.81225 33.4079C4.93035 33.6615 5.10871 33.8239 5.39072 33.8239C5.98003 33.8239 6.8417 33.0605 7.25145 32.6528C7.78292 32.1336 8.46141 31.324 8.72413 30.8001L9.33635 29.009C9.63763 28.222 10.4993 28.3606 10.4993 29.009C10.4993 30.1896 10.0618 30.5832 9.32188 33.0226C8.63977 35.2831 8.42767 36.0097 8.42767 36.0097C8.34813 36.3333 8.02756 36.8797 7.68892 36.8797C7.54792 36.8797 7.43945 36.8335 7.38281 36.7411C7.26471 36.5787 7.27435 36.1247 7.28881 36.0097C7.31291 35.6387 8.02756 33.4399 8.14446 33.0926C7.91066 33.3474 7.66482 33.6022 7.39245 33.8571C6.75734 34.4498 5.73539 35.2274 4.86407 35.2274C4.46396 35.2274 4.20486 35.1207 3.95539 34.9488L4.85081 44.1637C5.08581 44.7374 9.46409 46.1409 15.2307 46.1409C21.0117 46.1409 25.39 44.7279 25.6106 44.1637L26.8964 33.2087C26.2216 33.8097 25.4455 34.5505 24.5886 34.9215C23.9535 35.1906 22.5411 35.3661 22.5411 34.2637C22.5411 33.6615 23.61 32.5508 24.2355 31.7733C24.4006 31.5789 24.7862 31.0917 24.7862 30.8368C24.7862 30.5049 24.0812 30.5832 23.4124 31.1249C23.0352 31.439 22.6821 31.8562 22.3856 32.2498C21.8819 32.9444 21.6095 33.5465 21.3878 34.042C20.6586 35.6849 20.9033 35.0413 20.3152 36.5881C19.7259 38.1303 19.8211 37.9584 19.703 38.2085C19.6077 38.4283 19.4429 38.6121 19.233 38.7324C19.121 38.7899 18.9954 38.8168 18.8693 38.8104C18.7432 38.8039 18.6212 38.7643 18.5159 38.6957C18.4074 38.6246 18.3604 38.4776 18.3604 38.269C18.3604 38.1623 18.3749 38.0603 18.399 37.9584C18.5725 37.2508 19.3161 35.8603 20.1645 33.9863C20.3525 33.556 20.2814 33.6852 20.2585 33.7172C19.5282 34.4118 18.9726 34.7497 18.5629 34.9358C17.8808 35.2368 17.0324 35.2368 16.854 34.4581C16.8456 34.4118 16.8456 34.3656 16.8299 34.3194C15.4428 35.385 13.9737 35.6766 14.4775 33.3841C13.9352 34.3324 12.9952 35.1065 11.8406 35.1065C11.361 35.1065 11.0079 34.9441 10.8283 34.5185C10.5608 33.8796 10.985 32.7915 11.3706 31.7638C11.5731 31.2399 11.8406 30.6152 12.2082 29.8886C12.3962 29.495 12.7023 29.2639 13.1024 29.3646C13.1735 29.3883 13.2302 29.412 13.2904 29.4476C13.5965 29.6574 13.4796 29.9668 13.3242 30.2821C12.877 31.1474 12.4902 31.7875 12.2323 32.6895C12.1238 33.0688 11.9961 33.7315 12.4058 33.7315C12.6878 33.7315 12.9614 33.639 13.2205 33.4541C13.7628 33.0605 14.1943 32.4679 14.5245 31.8894C14.7595 31.4722 15.0427 30.9293 15.1837 30.467C15.2439 30.2679 15.3163 30.083 15.3958 29.9111C15.5272 29.6195 15.7007 29.3184 16.0068 29.3184C16.1635 29.3184 16.29 29.3789 16.384 29.495C16.5865 29.7499 16.5395 30.013 16.431 30.2916C16.196 30.94 15.8803 31.5184 15.6212 32.2272C15.4657 32.6303 15.3006 33.1518 15.3006 33.5785C15.3006 33.9721 15.7393 33.8796 16.1008 33.7172C16.384 33.5928 16.6672 33.3936 16.9022 33.1992C17.0432 32.6303 17.0107 32.7595 20.0091 25.3048C20.1645 24.9196 20.4465 24.7584 20.7285 24.7584C20.8695 24.7584 20.9876 24.8046 21.1057 24.8888C21.3034 25.0357 21.3034 25.3605 21.2226 25.6059C21.1383 25.8228 21.1527 25.7541 20.6924 26.8185C20.079 28.222 19.6801 29.2259 19.1378 30.5132C18.916 31.0466 18.2339 32.699 18.1158 33.0926C18.0459 33.3474 17.9603 33.7635 18.2339 33.7635C18.869 33.7635 20.5032 32.2498 20.9503 31.7958C20.9744 31.7638 21.0105 31.7496 21.0587 31.727C21.1286 31.5089 21.1997 31.3003 21.2564 31.0917C21.4215 30.6531 21.5758 30.1434 21.8831 29.7819C21.9759 29.6657 22.0795 29.597 22.1976 29.597C22.5266 29.597 22.6917 29.7356 22.6917 30.0592C22.6917 30.1896 22.6122 30.6519 22.5652 30.7776C22.7348 30.5988 22.9104 30.4256 23.0918 30.2584C24.8573 28.6475 26.1191 29.4713 26.1191 30.2821C26.1191 31.1391 25.0695 32.328 24.4946 32.9906C24.3066 33.2087 23.9161 33.6153 23.9065 33.7315C23.9065 33.8796 24.0101 33.9401 24.1656 33.9401C24.4006 33.9401 24.9188 33.5323 25.1068 33.3936C25.7705 32.8669 26.4203 32.3234 27.0555 31.7638L28.803 15.9275C25.2117 17.9047 5.54738 17.9189 1.93196 15.9512ZM28.9669 14.9698C28.9669 17.3997 1.75722 17.3997 1.75722 14.9698C1.75722 13.9504 7.85402 13.1266 15.3633 13.1266C16.4165 13.1266 17.4566 13.1408 18.4556 13.174L19.938 7.53764L27.1495 0.0699481C27.3195 -0.0924445 27.8365 0.0462411 28.3185 0.472966C28.7982 0.903248 29.0946 1.38924 28.9392 1.55163L28.9295 1.56467L22.188 8.56652L21.0117 13.2795C25.7046 13.5758 28.9669 14.2159 28.9669 14.9698ZM20.7948 15.5032C20.7948 15.4095 20.6912 15.3254 20.5032 15.2566L20.4791 15.3491C20.4791 15.5032 19.891 15.6276 19.1751 15.6276C18.4556 15.6276 17.8663 15.502 17.8663 15.3491C17.8663 15.3396 17.8663 15.3254 17.8808 15.3171L17.9049 15.2341C17.688 15.3029 17.547 15.3953 17.547 15.502C17.547 15.7426 18.2761 15.9287 19.1619 15.9287C20.0657 15.9418 20.7948 15.7426 20.7948 15.502V15.5032Z" fill="#20D320"/>
</g>
<defs>
<clipPath id="clip0_70_68">
<rect width="30.7434" height="59.2674" fill="white"/>
</clipPath>
</defs>
</svg>
