<svg width="69" height="64" viewBox="0 0 69 64" fill="none" xmlns="http://www.w3.org/2000/svg">
<path d="M59.0476 6.57709H10.8559L15.1072 51.2934L34.9518 56.5524L54.7963 51.2921L59.0476 6.57709Z" fill="#E65100"/>
<path d="M34.9518 10.5233V52.4748L50.8269 48.2683L54.3673 10.5233H34.9518Z" fill="#FF6D00"/>
<path d="M34.9518 32.8789V27.6198H47.1379L46.1521 42.7425L34.9518 46.1644V40.6386L40.7609 38.7963L41.1885 32.8789H34.9518ZM47.5669 22.3594L47.9903 17.0965H34.9518V22.3594H47.5669Z" fill="white"/>
<path d="M34.9518 40.6386V46.1644L23.7528 42.7425L23.1878 35.5097H28.8553L29.1427 38.7963L34.9518 40.6386ZM28.0042 22.3594H34.9518V17.0965H22.0534L23.0475 32.8789H34.9518V27.6198H28.4332L28.0042 22.3594Z" fill="#EEEEEE"/>
</svg>
