<svg width="63" height="58" viewBox="0 0 63 58" fill="none" xmlns="http://www.w3.org/2000/svg">
<g clip-path="url(#clip0_68_56)">
<path d="M23.8878 35.7916L23.9812 35.8328L24.1478 35.907C24.3598 36.0035 24.5718 36.0953 24.7889 36.1872L24.9277 36.2425C25.1738 36.3438 25.4199 36.4403 25.6761 36.5321L25.8591 36.6004C26.09 36.6828 26.3273 36.7664 26.5633 36.8453L26.6516 36.8724C26.9141 36.9548 27.1754 37.0372 27.4417 37.1114L27.6335 37.1667C27.8998 37.2397 28.1661 37.3315 28.4475 37.3833C46.1057 40.3855 51.237 27.482 51.237 27.482C46.9285 32.7152 39.2781 34.0986 32.0354 32.5586C31.7603 32.5033 31.4927 32.4209 31.2277 32.3467L31.0258 32.2914C30.7642 32.2181 30.5041 32.14 30.2459 32.0571L30.1386 32.0206C29.9091 31.9437 29.6806 31.864 29.4533 31.7816L29.2602 31.7121C29.0091 31.6203 28.763 31.5238 28.5156 31.4225L28.368 31.3637C28.1596 31.2758 27.9526 31.1851 27.7471 31.0917L27.5641 31.0093C27.4019 30.9351 27.2412 30.8582 27.082 30.7785L26.7564 30.6219C26.5621 30.5246 26.3698 30.4237 26.1797 30.3194L25.9828 30.2181C25.7277 30.0791 25.4761 29.9347 25.2281 29.7849L25.0262 29.6612C24.8432 29.5506 24.6602 29.4399 24.4885 29.3257L24.3156 29.215C24.1428 29.0996 23.9749 28.9854 23.8083 28.8701L23.5812 28.7088C23.4261 28.6018 23.2734 28.4919 23.123 28.3791L22.9161 28.2261C22.7242 28.0742 22.5375 27.927 22.3482 27.7752L22.2851 27.7245C22.0831 27.5597 21.8812 27.389 21.6831 27.2183L21.5152 27.0676C21.3676 26.9381 21.225 26.805 21.0824 26.672L20.9145 26.5154C20.7378 26.3459 20.5599 26.1705 20.387 25.9962L20.3567 25.968C20.175 25.7796 19.997 25.5912 19.8254 25.3981L19.6815 25.2415C19.5541 25.0944 19.4203 24.9472 19.2979 24.7953L19.154 24.634C19.002 24.4518 18.8543 24.2666 18.711 24.0783C14.6877 18.9593 13.2389 11.9001 16.4583 6.09936L13.6024 9.47241C9.95514 14.3701 10.4082 20.7394 13.1985 25.9409L13.4005 26.3129L13.533 26.5484L13.6125 26.6814L13.7601 26.9251C13.8434 27.0664 13.933 27.21 14.0252 27.349L14.1741 27.5821C14.2776 27.7351 14.381 27.8858 14.4845 28.033L14.6183 28.2261C14.7609 28.4286 14.9136 28.6264 15.0663 28.8289L15.0764 28.843L15.1547 28.9395C15.2834 29.1091 15.4209 29.2751 15.5585 29.4458L15.7125 29.6247C15.8349 29.7719 15.9636 29.9144 16.0911 30.0568L16.2349 30.2181C16.4078 30.4065 16.5795 30.5949 16.7625 30.7785L16.7726 30.7879L16.7915 30.8115C16.9644 30.9857 17.1423 31.16 17.3241 31.3354L17.497 31.4967C17.6358 31.625 17.7784 31.7533 17.921 31.8829L18.0977 32.0394C18.2857 32.209 18.4826 32.375 18.6795 32.5351L18.6896 32.5398L18.788 32.6222C18.9647 32.7659 19.1439 32.9036 19.3206 33.0413L19.5427 33.2026C19.6853 33.3133 19.833 33.4228 19.9869 33.5288L20.2179 33.6936C20.3857 33.809 20.5485 33.9196 20.7164 34.0256L20.8981 34.1457L20.9486 34.181C21.1051 34.2834 21.2679 34.38 21.4307 34.4753L21.6376 34.6048C21.8837 34.752 22.1412 34.8992 22.3923 35.0369L22.5993 35.1476C22.7911 35.2488 22.9779 35.3454 23.1672 35.4419L23.4827 35.5938L23.8878 35.7916ZM25.6711 19.2077C26.0661 19.7375 26.504 20.3662 27.0328 20.7901C27.2196 20.9879 27.4215 21.1762 27.6234 21.3646L27.7812 21.5071C27.9793 21.6872 28.1762 21.8614 28.3831 22.031L28.4084 22.0545L28.4172 22.0592C28.6444 22.2476 28.8804 22.4266 29.1227 22.6067L29.2855 22.7209C29.5265 22.8963 29.7726 23.0623 30.025 23.2271L30.0439 23.2413L30.3796 23.4485L30.5424 23.545C30.7242 23.6545 30.9072 23.7605 31.0889 23.8629L31.1684 23.9029C31.3262 23.9853 31.489 24.0736 31.6518 24.156L31.8234 24.2385L32.1641 24.4045L32.2134 24.4233C32.4506 24.5293 32.6816 24.6352 32.9239 24.7306L33.0753 24.7906C33.2684 24.8695 33.4665 24.9437 33.6584 25.012L33.9045 25.0944C34.0811 25.1591 34.2591 25.2145 34.437 25.2686L34.6781 25.3393C34.9343 25.4123 35.1854 25.5088 35.4479 25.55C49.0828 27.6562 52.2327 17.8609 52.2327 17.8609C49.3932 21.6731 43.8971 23.4944 38.035 22.0734C37.7738 22.0086 37.5176 21.9391 37.2614 21.8661L37.0292 21.792C36.8475 21.7413 36.6695 21.6825 36.4929 21.6224L36.2455 21.5353C36.0508 21.4659 35.8573 21.3937 35.665 21.3187L35.506 21.2539C35.2663 21.1581 35.0298 21.0556 34.7967 20.9466L34.4421 20.7759L34.2351 20.6794C34.0826 20.6015 33.9312 20.5218 33.7808 20.4404L33.6773 20.3851C33.4927 20.2844 33.3105 20.18 33.1308 20.0719L32.963 19.9718L32.6084 19.7505C32.356 19.5892 32.1149 19.4197 31.8739 19.2489L31.706 19.13C29.1416 17.2392 27.106 14.655 26.1405 11.7246C25.1246 8.68595 25.3417 5.27287 27.1009 2.50851L24.9429 5.35176C22.3002 8.89198 22.4428 13.639 24.5037 17.3911C24.8482 18.0163 25.2382 18.6273 25.6711 19.2077ZM40.0417 14.8198L40.3824 14.9305L40.5301 14.9776C40.6929 15.0223 40.8506 15.0777 41.0185 15.1059C48.5451 16.4622 50.5871 11.5045 51.1285 10.7734C49.344 13.1751 46.3366 13.7532 42.6502 12.9161C42.3484 12.8445 42.0506 12.7588 41.758 12.6594C40.71 12.3131 39.7255 11.8184 38.839 11.1925C35.5363 8.85431 33.4855 4.39812 35.6397 0.769592L34.4762 2.2648C32.9188 4.40283 32.7661 7.05653 33.8451 9.41589C34.9835 11.9224 37.3207 13.8897 40.0417 14.8198ZM32.775 43.5773H30.7343C30.6207 43.5773 30.5071 43.6597 30.4819 43.7656L29.0331 50.0208C29.0196 50.0729 28.9883 50.1195 28.9439 50.1535C28.8995 50.1875 28.8444 50.207 28.787 50.2092H27.3432C25.9134 50.2092 26.0762 49.285 26.3715 48.0193L26.3765 47.984L26.4106 47.8227L26.4156 47.7945L26.48 47.4683L26.5494 47.1234L26.6277 46.7702L26.9533 45.2656L27.2839 43.7656C27.3092 43.6597 27.2334 43.5773 27.1199 43.5773H25.0249C24.9113 43.5773 24.799 43.6597 24.775 43.7656L24.3257 45.7577L23.8777 47.7532V47.758L23.8323 47.9416C23.3149 50.1491 23.4537 52.2601 26.273 52.3248H30.7784C30.892 52.3248 31.0056 52.2424 31.0308 52.1412L31.9862 47.951L32.9378 43.7656C32.963 43.6597 32.8885 43.5773 32.775 43.5773ZM10.9118 43.5537H8.66915C8.55557 43.5537 8.44198 43.642 8.41674 43.7421L8.20599 44.6168L7.99397 45.4951C7.96873 45.5964 8.04319 45.6788 8.15677 45.6788H10.4145C10.5281 45.6788 10.6417 45.5964 10.6657 45.4904L10.8676 44.6168L11.0746 43.7433C11.0812 43.7205 11.0819 43.6966 11.0767 43.6735C11.0715 43.6504 11.0605 43.6287 11.0446 43.6104C11.0287 43.592 11.0084 43.5774 10.9853 43.5678C10.9622 43.5581 10.937 43.5537 10.9118 43.5549V43.5537ZM10.2618 46.2769H8.0028C7.88922 46.2769 7.77564 46.364 7.75166 46.4653L7.43111 47.7768L7.1156 49.0872L7.02726 49.4639L6.72185 50.8025L6.42149 52.1412C6.39625 52.2471 6.34577 52.4119 6.31296 52.5132C6.31296 52.5132 5.88892 53.6858 5.17841 53.6717L5.09006 53.6681L4.4742 53.6587C4.36062 53.6587 4.24704 53.7411 4.2218 53.8424L3.9858 54.7619L3.75359 55.6826C3.72835 55.7826 3.79776 55.8662 3.91134 55.8709C4.31519 55.8756 5.21248 55.8839 5.7602 55.8839C7.53459 55.8839 8.46723 54.9656 9.06795 52.3283L9.76837 49.3026L10.4246 46.4653C10.4313 46.4424 10.432 46.4183 10.4267 46.3951C10.4214 46.3719 10.4103 46.3503 10.3943 46.3319C10.3783 46.3135 10.3578 46.2989 10.3345 46.2893C10.3113 46.2798 10.2859 46.2755 10.2606 46.2769H10.2618ZM51.868 45.5693L51.7746 45.2102L51.6812 44.8382L51.6308 44.6533C51.449 43.987 50.9114 43.6055 49.744 43.6055L47.9192 43.6008H44.3552C44.2416 43.6008 44.1281 43.6832 44.1028 43.7892L44.0246 44.1565L43.9261 44.5898L43.8971 44.7134L43.049 48.4243L42.2414 51.9528C42.2165 52.0443 42.2097 52.1392 42.2212 52.233C42.235 52.2836 42.4521 52.3248 42.5657 52.3248H44.2669C44.3753 52.3261 44.4834 52.3122 44.5874 52.2836C44.6505 52.2601 44.7389 52.0529 44.7641 51.9528L45.0657 50.5541L45.3712 49.1566L45.4103 48.9683L45.7763 47.3624L46.1006 45.946C46.1258 45.8448 46.2394 45.7577 46.353 45.7577H51.7052C51.8188 45.7577 51.8933 45.6753 51.8693 45.5693H51.868ZM58.765 42.3081H56.6372C56.5745 42.3119 56.5134 42.3282 56.458 42.3561C56.4027 42.3839 56.3545 42.4226 56.3166 42.4694L52.523 47.6473C52.4586 47.7356 52.3842 47.7262 52.3589 47.6202L52.0788 46.4794C52.0636 46.4272 52.0312 46.3809 51.9861 46.3471C51.9409 46.3132 51.8855 46.2936 51.8276 46.291H49.3869C49.2733 46.291 49.2102 46.3734 49.2392 46.4747L50.3334 50.0479C50.3623 50.1691 50.364 50.2945 50.3385 50.4164L49.8602 52.1459C49.8311 52.2471 49.9056 52.3295 50.0179 52.3295H52.4246C52.5382 52.3295 52.6555 52.2471 52.6808 52.1459L53.1591 50.4152C53.1881 50.3151 53.2676 50.1632 53.3358 50.0761L59.4881 42.4553C59.5575 42.3729 59.5234 42.3034 59.4098 42.3034L58.765 42.3081ZM39.3955 46.7784V46.7737C39.3872 46.8285 39.3585 46.8788 39.3145 46.9159C39.2704 46.9529 39.2137 46.9743 39.1545 46.9762H36.0625C35.9603 46.9762 35.906 46.9067 35.9212 46.8243V46.8055L35.9351 46.7596C36.2316 46.0238 36.8323 45.5469 37.9618 45.5469C39.234 45.5469 39.4851 46.125 39.3955 46.7784ZM38.4894 43.4489C34.5266 43.4489 33.5839 45.6976 33.0564 47.9652C32.5289 50.2727 32.573 52.4355 36.6796 52.4355H37.3308L37.823 52.4308H37.8281C38.9134 52.4308 40.0025 52.4214 40.4405 52.4166C40.554 52.4166 40.6626 52.3295 40.6878 52.2283L40.8557 51.4689L40.8847 51.3217L41.0866 50.4211C41.1068 50.3151 41.0323 50.2327 40.9188 50.2327H37.2324C35.7634 50.2327 35.3242 49.8689 35.487 48.7964H41.3882C41.4351 48.7951 41.4805 48.781 41.5188 48.7559C41.5572 48.7308 41.5868 48.6957 41.604 48.6551L41.6192 48.608C42.4925 45.5281 42.2401 43.4489 38.4894 43.4489ZM19.7408 46.7643L19.6815 46.9491L19.2385 48.4243L18.7943 49.896C18.7763 49.948 18.7416 49.9937 18.6948 50.0267C18.6481 50.0598 18.5917 50.0787 18.5331 50.0808H16.1731C14.3874 50.0808 13.9482 48.774 14.3874 46.8526C14.8215 44.8841 15.6746 43.6609 17.4339 43.5361C19.8393 43.3665 20.3239 44.943 19.7408 46.7643ZM21.3575 49.9666C21.3575 49.9666 22.4681 47.4495 22.723 45.9967C23.0637 44.047 22.0238 41.2226 17.9866 41.2226C13.9734 41.2226 12.228 43.9187 11.563 46.8526C10.9017 49.8042 11.7699 52.3896 15.763 52.3707L18.9079 52.3613L21.8509 52.3484C21.9645 52.3484 22.0781 52.2659 22.1071 52.1635L22.6195 50.3387C22.6498 50.2374 22.5816 50.1538 22.4681 50.1538L21.9746 50.1491L21.4862 50.1444C21.3878 50.1444 21.3335 50.0902 21.3436 50.0114L21.3575 49.9666ZM41.2254 48.283C41.2254 48.3513 41.1611 48.4067 41.0866 48.4067C41.0691 48.4067 41.0518 48.4034 41.0356 48.3971C41.0194 48.3909 41.0048 48.3816 40.9925 48.37C40.9801 48.3584 40.9704 48.3447 40.9638 48.3295C40.9572 48.3144 40.9539 48.2982 40.9541 48.2819C40.9541 48.2136 41.0134 48.1535 41.0866 48.1535C41.1611 48.1535 41.2254 48.2124 41.2254 48.283Z" fill="#0868AC"/>
</g>
<defs>
<clipPath id="clip0_68_56">
<rect width="61.8389" height="57.6891" fill="white" transform="translate(0.717163 0.177368)"/>
</clipPath>
</defs>
</svg>
