<svg width="63" height="58" viewBox="0 0 63 58" fill="none" xmlns="http://www.w3.org/2000/svg">
<path d="M4.76556 3.60614H58.8733V54.0829H4.76556V3.60614Z" fill="#F5DE19"/>
<path d="M41.1117 43.042C41.5717 43.9159 42.2876 44.6505 43.1765 45.1607C44.0653 45.671 45.0909 45.936 46.1345 45.9252C48.2459 45.9252 49.5912 44.9457 49.5912 43.5847C49.5912 41.96 48.2055 41.3807 45.8884 40.4342L44.6176 39.9232C40.9451 38.4657 38.5094 36.6396 38.5094 32.7768C38.5094 29.2213 41.4083 26.5134 45.9528 26.5134C47.4248 26.4134 48.8958 26.7204 50.182 27.3959C51.4681 28.0714 52.5123 29.0855 53.1841 30.3115L49.2113 32.6803C48.9515 32.0732 48.5006 31.554 47.9179 31.191C47.3353 30.828 46.6483 30.6383 45.9477 30.647C45.3268 30.5882 44.716 30.7765 44.2528 31.1627C44.024 31.3544 43.8402 31.5881 43.7129 31.8493C43.5856 32.1105 43.5177 32.3934 43.5133 32.6803C43.5133 34.1013 44.4598 34.6806 46.6431 35.5636L47.9152 36.0745C52.2338 37.8028 54.6796 39.5641 54.6796 43.5247C54.6796 47.7972 51.0804 50.1377 46.2494 50.1377C44.3683 50.2479 42.4933 49.8485 40.8499 48.9877C39.2065 48.127 37.8647 46.8415 36.9861 45.2859L41.1117 43.042ZM23.1481 43.4505C23.947 44.775 24.6752 45.8923 26.4218 45.8923C28.0927 45.8923 29.1477 45.2801 29.1477 42.9136V26.7842H34.2299V42.9725C34.2299 47.8843 31.138 50.1189 26.6389 50.1189C25.0484 50.2008 23.4687 49.8316 22.1074 49.06C20.7462 48.2883 19.6672 47.1503 19.0125 45.7957L23.1481 43.4505Z" fill="#070000"/>
</svg>
