<svg width="61" height="61" viewBox="0 0 61 61" fill="none" xmlns="http://www.w3.org/2000/svg">
<g clip-path="url(#clip0_67_50)">
<path fill-rule="evenodd" clip-rule="evenodd" d="M57.9447 28.0339C57.6688 27.434 57.5296 26.7204 57.5016 26.0503C57.4308 24.4053 57.4918 22.7482 57.4161 21.0984C57.349 19.624 56.8204 18.2923 55.3849 17.5303C54.1252 16.8602 52.6665 16.7937 51.2652 16.7804V19.4111C51.7327 19.4305 51.618 19.445 51.7327 19.4498C53.6162 19.5442 54.2449 20.1344 54.2693 21.9814C54.2876 23.3615 54.2741 24.7367 54.2973 26.1108C54.3266 27.7835 54.5744 29.3765 56.1137 30.4288C56.143 30.4482 56.1381 30.5147 56.1576 30.5909C55.3703 31.1436 54.7502 31.8524 54.5695 32.8249C54.4257 33.6131 54.3413 34.4107 54.3169 35.2113C54.2741 36.6519 54.3218 38.0985 54.2778 39.5439C54.2449 40.6736 53.7065 41.207 52.5957 41.4574C52.1758 41.5517 51.7327 41.5844 51.2652 41.6461V44.2732C51.95 44.236 52.6338 44.1823 53.3159 44.1123C55.7231 43.8523 57.0817 42.6101 57.3588 40.295C57.4442 39.5717 57.4344 38.8315 57.454 38.0985C57.482 36.7232 57.4686 35.3383 57.5919 33.974C57.7164 32.5794 58.7418 31.8089 60.1431 31.8851V29.131C59.2093 29.2955 58.3463 28.8939 57.9459 28.0339H57.9447ZM14.0302 33.6522C14.0302 28.3036 13.8825 22.9599 13.8825 17.6113V16.7707C12.48 16.7707 10.9737 16.7562 9.49548 16.7755C8.89491 16.7852 8.36515 16.836 7.76946 16.9171C5.49049 17.2243 4.39312 18.2826 3.98786 20.5312C3.86946 21.1843 3.89265 21.8592 3.88288 22.5208C3.86457 23.7824 3.90242 25.0439 3.88288 26.3055C3.85481 27.8972 3.10166 29.131 1.46598 29.2205C1.40861 29.2253 1.7333 29.2906 1.26579 29.3293V31.7847C3.13462 32.0786 3.73152 32.8249 3.85359 34.5449C3.87434 34.8194 3.878 35.0976 3.88288 35.3722C3.89753 36.9083 3.878 38.448 3.95002 39.983C4.01716 41.415 4.33575 42.6947 5.70533 43.4471C6.97848 44.151 8.74233 44.2067 9.67613 44.2454V41.6182C9.67613 41.5989 9.57604 41.5759 9.48571 41.5699C7.45942 41.4489 7.00167 40.9046 6.9919 38.892C6.98214 37.5639 7.04073 36.231 7.0212 34.9005C6.9919 33.2265 6.74411 31.6396 5.21829 30.5812C5.19387 30.5667 5.21829 30.4965 5.20852 30.4058C6.23876 29.7636 6.78317 28.7766 6.92965 27.5852C7.01143 26.9236 7.03951 26.2583 7.05416 25.5919C7.07857 24.2166 7.04927 22.8365 7.08712 21.4625C7.11641 20.4937 7.74017 19.7897 8.53238 19.6337C9.28552 19.4825 9.67613 19.4873 11.0787 19.416V20.3715C11.0787 25.1431 10.9078 29.9148 10.931 34.6924C10.9407 36.3253 11.1263 37.9376 12.8901 38.6416C13.8545 39.0286 14.8835 39.1472 15.9906 39.4024C16.1761 38.3344 16.2335 37.4466 16.3861 36.5672C14.35 35.9866 14.0302 35.6879 14.0302 33.6522ZM26.4932 24.444C23.0655 22.8184 18.9031 24.2408 17.3053 27.6469C16.0992 30.2123 16.142 32.8588 17.2015 35.4569C17.475 36.1446 17.8834 36.7718 18.403 37.3023C18.9226 37.8327 19.5431 38.2559 20.2287 38.5472C22.985 39.7616 25.7791 39.4677 28.5585 38.6125C28.7111 38.5702 28.9015 38.2823 28.8832 38.1311C28.788 37.3607 28.6305 36.5999 28.4926 35.8064C27.8298 35.9721 27.2756 36.1415 26.7092 36.2455C25.2163 36.5237 23.7186 36.5237 22.2648 35.9479C20.8293 35.3855 19.8662 33.7611 20.1042 32.3713H29.861C29.9794 30.9828 29.9318 29.0741 29.3312 27.4908C28.8014 26.0829 27.8811 25.1008 26.4944 24.4428L26.4932 24.444ZM26.4748 30.0563H20.0615C20.0664 28.2045 21.5873 26.5414 23.5855 26.5788C25.3396 26.6127 26.5518 28.2045 26.4748 30.0563ZM52.691 35.7411C52.9192 33.4019 52.2088 32.0835 50.1068 31.0674C49.3573 30.7082 48.5663 30.4385 47.8083 30.1034C47.2407 29.8579 46.6682 29.6027 46.1348 29.2858C45.6197 28.9798 45.4 28.4694 45.4756 27.8694C45.5525 27.278 45.9346 26.8861 46.4924 26.7772C47.1589 26.6405 47.8657 26.5268 48.5431 26.5788C49.4953 26.655 50.4352 26.9006 51.4227 27.0748L52.0416 24.3823C50.711 24.184 49.4672 23.9227 48.2136 23.8247C46.8159 23.7159 45.4573 23.9469 44.1793 24.5988C41.4816 25.9741 41.4328 30.2075 43.912 31.5972C44.6517 32.0121 45.4476 32.3338 46.219 32.6979C47.0308 33.0801 47.8693 33.4164 48.6481 33.8591C49.2389 34.1953 49.4477 34.7807 49.2914 35.4665C49.1425 36.104 48.6567 36.3882 48.0842 36.4438C47.2175 36.5249 46.3252 36.6047 45.4671 36.5007C44.4271 36.3785 43.4164 36.0653 42.3532 35.8306L41.8149 38.5085C44.3038 39.435 46.7683 39.5911 49.2572 39.0431C51.3409 38.5847 52.5286 37.3752 52.691 35.7411ZM39.4102 31.365C38.4947 30.8836 37.5133 30.534 36.5697 30.1034C35.9838 29.8398 35.3625 29.6075 34.8437 29.2386C33.8513 28.5298 34.0381 27.1703 35.1916 26.8062C35.875 26.6005 36.5915 26.525 37.3033 26.5837C38.2579 26.655 39.1917 26.8957 40.1841 27.0748L40.7749 24.5045C40.2695 24.3678 39.8106 24.2215 39.3491 24.1271C37.4901 23.7401 35.6261 23.5889 33.7988 24.2263C32.2303 24.7742 31.1378 25.7951 30.9242 27.515C30.68 29.4382 31.3245 30.9586 33.1177 31.8706C33.8379 32.2346 34.6044 32.4995 35.3344 32.8394C36.0692 33.1793 36.8114 33.501 37.495 33.9256C38.0089 34.2473 38.2152 34.8001 38.0711 35.4339C37.9246 36.0616 37.4608 36.3773 36.8834 36.4354C36.0167 36.5249 35.1257 36.6047 34.2663 36.5055C33.2227 36.3882 32.2058 36.0761 31.1292 35.8354C30.9669 36.5817 30.7813 37.3329 30.6654 38.0937C30.6373 38.263 30.8241 38.5799 30.9815 38.6319C33.4985 39.4967 36.0595 39.6237 38.6192 38.8774C40.145 38.4299 41.2131 37.4647 41.4279 35.8064C41.6757 33.9316 41.2229 32.3145 39.4114 31.365H39.4102Z" fill="#2A4D80"/>
</g>
<defs>
<clipPath id="clip0_67_50">
<rect width="59.8123" height="59.2674" fill="white" transform="translate(0.798279 0.885834)"/>
</clipPath>
</defs>
</svg>
