<svg width="71" height="56" viewBox="0 0 71 56" fill="none" xmlns="http://www.w3.org/2000/svg">
<path d="M23.1016 18.4258L15.3672 42H9.13672L19.7031 13.5625H23.668L23.1016 18.4258ZM29.5273 42L21.7734 18.4258L21.1484 13.5625H25.1523L35.7773 42H29.5273ZM29.1758 31.4141V36.0039H14.1562V31.4141H29.1758ZM54.5469 32.5664H60.3867C60.2695 34.4805 59.7422 36.1797 58.8047 37.6641C57.8802 39.1484 56.5846 40.3073 54.918 41.1406C53.2643 41.974 51.2721 42.3906 48.9414 42.3906C47.1185 42.3906 45.4844 42.0781 44.0391 41.4531C42.5938 40.8151 41.3568 39.9036 40.3281 38.7188C39.3125 37.5339 38.5378 36.1016 38.0039 34.4219C37.4701 32.7422 37.2031 30.8607 37.2031 28.7773V26.8047C37.2031 24.7214 37.4766 22.8398 38.0234 21.1602C38.5833 19.4674 39.3776 18.0286 40.4062 16.8438C41.4479 15.6589 42.6914 14.7474 44.1367 14.1094C45.582 13.4714 47.1966 13.1523 48.9805 13.1523C51.3503 13.1523 53.349 13.582 54.9766 14.4414C56.6172 15.3008 57.8867 16.4857 58.7852 17.9961C59.6966 19.5065 60.2435 21.2253 60.4258 23.1523H54.5664C54.5013 22.0065 54.2734 21.0365 53.8828 20.2422C53.4922 19.4349 52.8997 18.8294 52.1055 18.4258C51.3242 18.0091 50.2826 17.8008 48.9805 17.8008C48.0039 17.8008 47.151 17.9831 46.4219 18.3477C45.6927 18.7122 45.0807 19.2656 44.5859 20.0078C44.0911 20.75 43.7201 21.6875 43.4727 22.8203C43.2383 23.9401 43.1211 25.2552 43.1211 26.7656V28.7773C43.1211 30.2487 43.2318 31.5443 43.4531 32.6641C43.6745 33.7708 44.013 34.7083 44.4688 35.4766C44.9375 36.2318 45.5365 36.8047 46.2656 37.1953C47.0078 37.5729 47.8997 37.7617 48.9414 37.7617C50.1654 37.7617 51.1745 37.5664 51.9688 37.1758C52.763 36.7852 53.3685 36.2057 53.7852 35.4375C54.2148 34.6693 54.4688 33.7122 54.5469 32.5664Z" fill="#FFFFFF"/>
<rect x="2.5" y="2.5" width="66" height="51" rx="6.5" stroke="#FFFFFF" stroke-width="5"/>
</svg>
