<svg width="19" height="17" fill="none" xmlns="http://www.w3.org/2000/svg"><path d="M14.32 10.16c-.372-.35-.82-.537-1.295-.537-.47 0-.922.184-1.309.533l-1.209 1.09c-.1-.048-.199-.093-.295-.138a5.051 5.051 0 0 1-.379-.183c-1.133-.651-2.162-1.5-3.15-2.597-.478-.546-.8-1.007-1.033-1.474.314-.26.605-.53.888-.79.107-.096.214-.197.321-.294.804-.727.804-1.668 0-2.395L5.814 2.43a15.21 15.21 0 0 1-.355-.329c-.23-.214-.471-.436-.72-.644A1.907 1.907 0 0 0 3.457.948c-.467 0-.919.177-1.302.51l-.007.006L.846 2.652c-.49.443-.769.983-.83 1.61-.092 1.01.237 1.951.49 2.568.62 1.512 1.546 2.914 2.928 4.417a17.875 17.875 0 0 0 5.997 4.247c.88.377 2.056.824 3.369.9.08.003.164.007.24.007.885 0 1.628-.288 2.21-.859.003-.007.01-.01.015-.017.199-.218.428-.415.67-.627.164-.141.332-.29.497-.446.379-.357.578-.772.578-1.198 0-.429-.203-.84-.59-1.187l-2.1-1.907Zm1.37 3.645c-.004 0-.004.003 0 0-.15.145-.303.277-.467.422-.25.215-.502.44-.74.692-.386.374-.841.55-1.438.55-.058 0-.119 0-.176-.003-1.137-.066-2.194-.467-2.986-.81a16.871 16.871 0 0 1-5.65-4.001C2.93 9.232 2.057 7.917 1.479 6.505c-.356-.863-.486-1.534-.429-2.168.038-.405.21-.74.528-1.028l1.306-1.18c.187-.16.386-.246.581-.246.241 0 .437.132.56.242l.01.01c.234.198.456.402.69.62.118.111.24.222.363.336l1.045.945c.406.367.406.706 0 1.073-.11.1-.218.201-.329.298-.322.298-.628.575-.96.845-.008.006-.016.01-.02.017-.329.298-.268.588-.199.786l.012.03c.271.596.654 1.157 1.236 1.825l.004.003c1.056 1.177 2.17 2.095 3.399 2.797.156.09.317.163.47.232.138.063.268.121.38.184l.045.024a.9.9 0 0 0 .38.087c.317 0 .516-.18.58-.24l1.31-1.183c.13-.118.337-.26.578-.26.237 0 .432.135.551.253l.008.007 2.109 1.907c.394.353.394.717.004 1.084ZM9.787 3.901a5.045 5.045 0 0 1 2.641 1.24c.728.657 1.198 1.481 1.37 2.388.043.229.261.388.51.388.03 0 .057-.004.088-.007.283-.042.47-.284.425-.54-.207-1.097-.781-2.098-1.658-2.89a6.136 6.136 0 0 0-3.196-1.5c-.283-.04-.547.129-.597.381-.05.253.134.499.417.54ZM18.1 7.235c-.34-1.807-1.281-3.451-2.728-4.76-1.447-1.308-3.265-2.16-5.263-2.468-.28-.045-.544.128-.593.38-.046.257.141.496.425.54a9.04 9.04 0 0 1 4.704 2.206c1.293 1.17 2.135 2.641 2.438 4.254.042.229.26.388.509.388.03 0 .057-.004.088-.007.28-.038.47-.28.42-.533Z" fill="#949494"/></svg>