<svg width="60" height="61" viewBox="0 0 60 61" fill="none" xmlns="http://www.w3.org/2000/svg">
<path fill-rule="evenodd" clip-rule="evenodd" d="M29.9586 5.86551C43.6959 5.86551 54.8296 16.8977 54.8296 30.505C54.8296 44.1172 43.6959 55.1494 29.9586 55.1494C16.2262 55.1494 5.08771 44.1184 5.08771 30.505C5.09259 16.8977 16.2262 5.86672 29.9586 5.86672V5.86551Z" fill="#F06292"/>
<path fill-rule="evenodd" clip-rule="evenodd" d="M45.5599 16.4115C44.4296 12.0366 37.1105 10.5948 30.1784 13.0368C26.0525 14.4883 21.5849 16.7659 18.377 19.7425C14.5564 23.2816 13.9521 26.3623 14.1999 27.6469C15.0861 32.1875 21.3652 35.1545 23.9457 37.3607V37.3703C23.1828 37.7441 17.6141 40.5357 16.3117 43.3938C14.9336 46.4044 16.5314 48.5682 17.5848 48.861C20.8562 49.7584 24.213 48.1376 26.0147 45.4742C27.7554 42.8979 27.6138 39.5765 26.8545 37.9231C27.8982 37.6534 29.1152 37.5312 30.6593 37.7102C35.0219 38.2158 35.8813 40.9143 35.7128 42.0428C35.5517 43.1725 34.6362 43.7966 34.331 43.9805C34.0259 44.1692 33.9307 44.2345 33.9587 44.3724C33.9929 44.5756 34.1357 44.5659 34.3982 44.5235C34.7558 44.4631 36.6869 43.6067 36.7724 41.5191C36.8773 38.8726 34.3164 35.9153 29.7817 35.9915C27.9177 36.0241 26.7398 36.1983 25.8963 36.5116L25.701 36.2975C22.902 33.3353 17.7179 31.2416 17.9376 27.2598C18.0194 25.8084 18.5235 21.9959 27.8945 17.3706C35.5664 13.5811 41.7075 14.625 42.7707 16.9352C44.2867 20.2384 39.4859 26.3708 31.5174 27.2598C28.4804 27.5948 26.8826 26.4276 26.4883 25.9934C26.0672 25.5398 26.0062 25.5157 25.8487 25.6015C25.596 25.743 25.7535 26.1446 25.8487 26.3853C26.0867 26.9998 27.0645 28.0859 28.7294 28.629C30.1918 29.1068 33.7586 29.3668 38.0687 27.7182C42.8952 25.8652 46.6658 20.715 45.5599 16.4115ZM25.0186 38.7166C25.3763 40.0398 25.3384 41.2784 24.9661 42.3972C24.9234 42.5254 24.8807 42.6476 24.8282 42.7661C24.5171 43.5126 24.073 44.1976 23.5172 44.7884C22.072 46.3524 20.0554 46.9378 19.1924 46.4419C18.2574 45.9036 18.7249 43.7059 20.3984 41.9484C22.2014 40.0591 24.7953 38.8448 24.7953 38.8448L24.7904 38.8399C24.8661 38.7976 24.943 38.7589 25.0186 38.7166Z" fill="white"/>
</svg>
