<svg width="23" height="24" viewBox="0 0 23 24" fill="none" xmlns="http://www.w3.org/2000/svg">
<path d="M11.5 0.539229C5.17953 0.539229 0 5.82749 0 12.2252C0 18.5857 5.13232 23.8202 11.5 23.8202C17.8598 23.8202 23 18.5935 23 12.2252C23 5.82749 17.8205 0.539229 11.5 0.539229ZM13.5215 22.2514C12.8747 22.3878 12.1873 22.4561 11.5 22.4561C10.8127 22.4561 10.1253 22.3878 9.47852 22.2514V19.0594C9.47852 18.2955 9.68066 18.0227 9.9502 17.6543C10.0874 17.4955 10.1702 17.353 10.7856 16.4131L9.74805 16.2493C7.07958 15.8538 6.02848 14.4486 5.61067 13.3573C5.07161 11.8978 5.35465 10.0698 6.32504 8.91043C6.47331 8.73299 6.59457 8.43282 6.48682 8.11914C6.2845 7.49161 6.31152 6.49588 6.44629 6.11382C7.16083 6.21719 7.89555 6.73531 8.50831 7.10973C8.79065 7.27651 8.93875 7.23246 9.07422 7.24614C9.5666 7.14241 10.3347 6.89143 11.5135 6.89143C12.2412 6.89143 13.0094 7.00049 13.7642 7.21879C13.8991 7.21559 14.116 7.33175 14.4919 7.10973C15.1324 6.7147 15.8422 6.21435 16.5537 6.11382C16.6885 6.49588 16.7155 7.49161 16.5134 8.11914C16.4054 8.43282 16.5267 8.73299 16.6751 8.91043C17.6453 10.0699 17.9284 11.8978 17.3893 13.3573C16.9715 14.4486 15.9204 15.8538 13.252 16.2493L12.2144 16.4131C12.8505 17.3847 12.9175 17.5012 13.05 17.6543C13.3193 18.0227 13.5215 18.2955 13.5215 19.0594V22.2514ZM14.8691 21.8559V19.0594C14.8691 18.2818 14.7074 17.7635 14.4917 17.3815C16.5402 16.8223 17.9958 15.5944 18.6426 13.8348C19.3299 11.9797 19.02 9.76976 17.8743 8.24187C18.0767 7.32802 18.0767 5.86835 17.5915 5.18629C17.3758 4.88629 17.0793 4.72252 16.702 4.72252C16.6885 4.72252 16.6885 4.72252 16.6885 4.72252C15.6435 4.77972 14.8211 5.3124 13.9393 5.85467C13.1307 5.63637 12.3086 5.52732 11.4865 5.52732C10.651 5.52732 9.81543 5.65005 9.07439 5.85467C8.14613 5.28806 7.33157 4.7783 6.25765 4.72252C5.92074 4.72252 5.62418 4.88629 5.40852 5.18629C4.92351 5.86835 4.92351 7.32802 5.12566 8.24187C3.97997 9.76976 3.67008 11.9932 4.35742 13.8348C5.00423 15.5944 6.4598 16.8223 8.50831 17.3815C8.34108 17.6776 8.20877 18.0596 8.15665 18.5767C7.74288 18.7211 7.38403 18.7681 7.05028 18.6688C6.69827 18.5635 6.424 18.3257 6.18571 17.92C5.65051 17.0099 4.73891 16.2669 3.70097 16.3635L3.81941 17.7223C4.30004 17.6777 4.77839 18.1925 5.02686 18.6168C5.43678 19.3156 5.989 19.7738 6.66862 19.977C7.17311 20.1275 7.63426 20.1239 8.13086 20.0166V21.8559C4.20914 20.4644 1.34766 16.6722 1.34766 12.2252C1.34766 6.57776 5.92074 1.90335 11.5 1.90335C17.0793 1.90335 21.6523 6.57776 21.6523 12.2252C21.6523 16.6722 18.7909 20.4644 14.8691 21.8559Z" fill="white"/>
</svg>
