<svg width="23" height="22" fill="none" xmlns="http://www.w3.org/2000/svg"><path d="M9.879 19.976h3.247c.193 0 .35.15.35.335 0 .185-.157.33-.35.33H9.88a.363.363 0 0 1-.247-.095.332.332 0 0 1-.104-.235c0-.184.157-.335.35-.335Zm13.116.335c0 .92-.782 1.664-1.743 1.664h-19.5c-.461 0-.903-.175-1.23-.486a1.631 1.631 0 0 1-.513-1.173 9.754 9.754 0 0 1 .045-1.5l1.82-3.033V4.323c0-.92.777-1.663 1.734-1.668H6.75A5.36 5.36 0 0 1 8.757.73a5.667 5.667 0 0 1 2.747-.704c1.963 0 3.773 1.001 4.752 2.63h3.14c.961.004 1.739.747 1.739 1.667v11.46l1.814 3.03c.05.498.068 1 .046 1.503v-.005ZM10.206 9.586c.073.02.138.063.183.121.046.058.07.13.07.202v1.628c.565.047 1.387-.176 1.39.335.01.512-.825.289-1.39.33v1.001a.96.96 0 0 0 .064.397c.05.127.125.243.223.34.098.098.215.176.345.23a1.087 1.087 0 0 0 1.168-.23.962.962 0 0 0 .288-.737V9.91c0-.15.103-.284.256-.322a4.756 4.756 0 0 0 2.684-1.893c.627-.92.887-2.025.73-3.112a4.501 4.501 0 0 0-1.59-2.805A4.89 4.89 0 0 0 11.502.66a4.89 4.89 0 0 0-3.124 1.118 4.501 4.501 0 0 0-1.59 2.805 4.4 4.4 0 0 0 .73 3.112 4.756 4.756 0 0 0 2.685 1.893l.003-.002Zm-7.641 5.956h17.874V4.322c0-.55-.467-.992-1.037-.997h-2.818a5.04 5.04 0 0 1-.156 4.096 5.28 5.28 0 0 1-1.303 1.677c-.547.47-1.187.83-1.883 1.06v3.05c0 .04-.008.073-.008.112h4.888V6.097a.33.33 0 0 1 .113-.214.359.359 0 0 1 .47 0 .33.33 0 0 1 .113.214v7.554c0 .185-.157.33-.35.33h-5.436c-.15.264-.37.484-.64.637a1.799 1.799 0 0 1-1.78 0 1.699 1.699 0 0 1-.64-.637H4.538a.356.356 0 0 1-.245-.096.327.327 0 0 1-.1-.234V6.097a.324.324 0 0 1 .107-.222.354.354 0 0 1 .238-.091c.188 0 .341.137.35.313v7.218h4.888c0-.038-.014-.072-.014-.11v-3.052a5.556 5.556 0 0 1-1.883-1.06 5.28 5.28 0 0 1-1.302-1.677 5.03 5.03 0 0 1-.152-4.094H3.617c-.575 0-1.043.447-1.043.997l-.01 11.223ZM.957 18.644h21.086l-1.456-2.441H2.417l-1.46 2.44Zm21.343.667H.705v.996a.98.98 0 0 0 .307.704c.195.187.46.292.736.293h19.504c.575 0 1.043-.447 1.043-.997l.005-.996ZM11.505 1.99a3.44 3.44 0 0 1 2.311.979 3.15 3.15 0 0 1 .95 2.241c0 .837-.341 1.64-.95 2.242a3.44 3.44 0 0 1-2.311.978 3.445 3.445 0 0 1-2.345-.963 3.152 3.152 0 0 1-.966-2.26 3.153 3.153 0 0 1 .968-2.255 3.445 3.445 0 0 1 2.343-.962Zm0 5.775a2.73 2.73 0 0 0 1.827-.78 2.5 2.5 0 0 0 .75-1.775 2.5 2.5 0 0 0-.75-1.775 2.73 2.73 0 0 0-1.827-.78 2.732 2.732 0 0 0-1.854.766 2.5 2.5 0 0 0-.765 1.786c0 .67.274 1.312.764 1.79.49.479 1.155.754 1.855.768Z" fill="#fff"/></svg>
