<?xml version="1.0" encoding="UTF-8"?><!DOCTYPE svg PUBLIC "-//W3C//DTD SVG 1.1//EN" "http://www.w3.org/Graphics/SVG/1.1/DTD/svg11.dtd"><svg xmlns="http://www.w3.org/2000/svg" xmlns:xlink="http://www.w3.org/1999/xlink"><symbol id="icon-youtube" viewBox="0 0 20 14">
<path d="M17.1 0H2.8C1.3 0 0 1.3 0 2.8V11.1C0 12.7 1.3 14 2.8 14H17.1C18.7 14 19.9 12.7 19.9 11.2V2.8C20 1.3 18.7 0 17.1 0ZM7 10.4V3.6L13.8 7L7 10.4Z" fill="currentColor"/>
</symbol>

<symbol id="burger" viewBox="0 0 42 31">
  <path d="M0.999945 2.25633L41.6679 2.25405" stroke="currentColor" stroke-width="4"/>
<line x1="1.00012" y1="28.2797" x2="41.7272" y2="28.2797" stroke="currentColor" stroke-width="4"/>
<line x1="1.00012" y1="15.3965" x2="41.7272" y2="15.3965" stroke="currentColor" stroke-width="4"/>
</symbol>

<symbol id="github" viewBox="0 0 28 27">
  <path d="M13.7586 1.84326C20.4403 1.84326 25.8576 7.18289 25.8576 13.7631C25.8576 19.0191 22.3929 23.4896 17.5833 25.0733C17.5166 25.0835 17.4492 25.0888 17.3817 25.0889C16.9252 25.0889 16.7682 24.7685 16.7682 24.4963V21.2253C16.7682 20.1052 16.3909 19.3963 15.9474 19.0205C18.6402 18.727 21.4814 17.7189 21.4814 13.145C21.4814 11.8377 21.0033 10.7686 20.2329 9.94912C20.3625 9.63719 20.7729 8.42493 20.1091 6.78022C20.0083 6.75283 19.904 6.73993 19.7995 6.74194C18.6906 6.74194 16.7797 8.0095 16.7797 8.0095C15.796 7.73996 14.7796 7.60353 13.7586 7.60399C12.7289 7.60399 11.6878 7.74294 10.7316 8.00808C10.7316 8.00808 8.81929 6.74052 7.70039 6.74052C7.59583 6.73815 7.4915 6.75105 7.39078 6.7788C6.74277 8.42351 7.15462 9.63719 7.27846 9.9477C6.50805 10.7672 6.03572 11.842 6.03572 13.1435C6.03572 17.7005 8.85385 18.7256 11.5481 19.0191C11.2054 19.3296 10.89 19.8443 10.7777 20.6199C10.4739 20.7588 9.9569 20.9361 9.38809 20.9361C8.66232 20.9361 7.85159 20.6468 7.26118 19.6231C7.06728 19.2931 6.79915 19.0112 6.47739 18.7991C6.15562 18.587 5.78877 18.4503 5.40499 18.3995H5.36611C4.24145 18.3995 5.32147 19.1297 5.32147 19.1297C6.11348 19.4842 6.66501 20.8694 6.66501 20.8694C7.08694 22.137 8.46504 22.3922 9.50618 22.3922C10.2031 22.3922 10.7446 22.2816 10.7446 22.2816C10.7446 23.2741 10.7604 24.2198 10.7604 24.4963C10.7604 24.7685 10.592 25.0889 10.1355 25.0889C10.066 25.089 9.99672 25.0838 9.9281 25.0733C5.12419 23.4882 1.65949 19.0191 1.65949 13.7631C1.65949 7.18431 7.07542 1.84468 13.7586 1.84468V1.84326ZM13.7586 0.564356C11.9656 0.56089 10.1903 0.912895 8.53848 1.59939C6.94683 2.26381 5.50084 3.22531 4.28034 4.43084C3.05707 5.63316 2.0811 7.05675 1.40605 8.62343C0.709351 10.25 0.351863 11.9979 0.354835 13.7631C0.348114 16.5653 1.2524 19.296 2.93535 21.5557C3.74764 22.6482 4.72469 23.6121 5.83268 24.414C6.9534 25.2262 8.19695 25.8597 9.5177 26.2913L9.60698 26.3239L9.6977 26.3409C9.84314 26.3636 9.99578 26.3792 10.1355 26.3792C10.7259 26.3792 11.25 26.1523 11.6101 25.7369C11.908 25.3933 12.0696 24.9551 12.0651 24.5034C12.0651 24.397 12.0651 24.2255 12.0593 23.9816C12.052 23.4169 12.0482 22.8521 12.0478 22.2873V20.9304L12.0709 20.7971C12.1429 20.298 12.3243 20.0655 12.4309 19.9719L13.7125 18.8249L15.1035 19.9989C15.1655 20.0499 15.4693 20.3491 15.4693 21.2239V24.4963C15.4693 25.5653 16.2901 26.3749 17.3817 26.3749C17.5271 26.3749 17.674 26.3636 17.8194 26.3352L17.9101 26.3182L17.9994 26.2913C19.3164 25.8551 20.5574 25.222 21.6787 24.414C22.788 23.6136 23.7652 22.6495 24.576 21.5557C25.3979 20.4517 26.0392 19.228 26.4768 17.9288C26.933 16.5859 27.165 15.1791 27.1637 13.7631C27.1673 11.9978 26.8097 10.2498 26.1125 8.62343C25.437 7.05663 24.4606 5.63304 23.2368 4.43084C22.0162 3.22582 20.5702 2.26481 18.9786 1.60081C17.3276 0.911689 15.5518 0.559575 13.7586 0.565774V0.564356ZM13.7528 17.9727L11.6936 17.7459C10.2708 17.5899 9.29737 17.2581 8.62344 16.6981C7.76231 15.9835 7.34038 14.8209 7.34038 13.1435C7.34038 12.2347 7.64279 11.4535 8.23464 10.8168L8.79625 10.2185L8.48808 9.4713C8.44344 9.35504 8.27928 8.89424 8.35848 8.20233C8.93373 8.4422 9.48561 8.73311 10.0073 9.07147L10.5012 9.40466L11.0816 9.24445C12.832 8.77191 14.6794 8.77191 16.4298 9.24445L17.0159 9.40466L17.5098 9.07147C18.0287 8.73515 18.5766 8.44432 19.1471 8.20233C19.2321 8.89424 19.0751 9.35504 19.0233 9.4713L18.7209 10.2185L19.2767 10.8168C19.8729 11.4549 20.1767 12.2347 20.1767 13.1421C20.1767 14.8265 19.7548 15.9892 18.8879 16.7038C18.2082 17.2567 17.229 17.5899 15.8005 17.7459L13.7528 17.9727Z" fill="currentColor"/>
</symbol>
<symbol id="vk" viewBox="0 0 26 25">
  <path d="M12.7592 0.0804443C9.42222 0.0811961 6.22215 1.38672 3.86256 3.70998C1.50297 6.03325 0.177033 9.18405 0.17627 12.4696C0.177033 15.7552 1.50297 18.906 3.86256 21.2293C6.22215 23.5525 9.42222 24.8581 12.7592 24.8588C16.0961 24.8581 19.2962 23.5525 21.6558 21.2293C24.0154 18.906 25.3413 15.7552 25.3421 12.4696C25.3413 9.18405 24.0154 6.03325 21.6558 3.70998C19.2962 1.38672 16.0961 0.0811961 12.7592 0.0804443ZM12.7592 1.15518C19.1097 1.15518 24.2506 6.21691 24.2506 12.4696C24.2506 18.7224 19.1097 23.7841 12.7592 23.7841C6.40869 23.7841 1.26781 18.7224 1.26781 12.4696C1.26781 6.21691 6.40869 1.15518 12.7592 1.15518ZM7.2871 8.69815H5.07955C5.07955 8.69815 4.94994 8.69248 4.79874 8.71516C4.6461 8.73076 4.42146 8.74352 4.19105 8.99732V9.00299C4.11325 9.09046 4.05704 9.19446 4.02682 9.30686C3.99659 9.41927 3.99317 9.53703 4.01681 9.65095C4.04561 9.79415 4.10033 9.90616 4.10033 9.91041C4.12337 9.96004 5.72756 13.8265 7.74647 15.9079C9.16921 17.3712 10.6928 17.8589 12.055 17.8589H12.7592C12.9896 17.8589 13.1984 17.8475 13.4288 17.7313C13.5511 17.6581 13.6538 17.557 13.7282 17.4366C13.8027 17.3162 13.8466 17.18 13.8565 17.0394C13.8565 16.7671 13.8622 16.5077 13.8954 16.3631C13.9299 16.2241 13.9184 16.2581 13.9299 16.2581C13.94 16.2638 13.963 16.2695 14.0077 16.2865C14.1085 16.329 14.2611 16.4297 14.4253 16.5559C14.7623 16.8111 15.1554 17.1826 15.6003 17.4704C16.2354 17.8816 16.9281 17.8589 16.9281 17.8589H19.2004L19.222 17.8532C19.222 17.8532 19.5705 17.8475 19.9305 17.632C20.161 17.4991 20.3292 17.2821 20.3985 17.028C20.4662 16.7289 20.3755 16.4184 20.2012 16.1419C20.1335 16.0426 19.8239 15.5988 18.5812 14.5085C18.36 14.3266 18.1494 14.1325 17.9505 13.9272C17.9217 13.8875 17.9173 13.8932 17.9116 13.8875C17.9173 13.8705 17.9908 13.7216 18.1823 13.4763C18.3839 13.2168 18.6878 12.8624 19.0823 12.3704C19.513 11.8402 19.8721 11.2573 20.1508 10.6364C20.253 10.4122 20.3322 10.1785 20.387 9.93877C20.4316 9.73318 20.4705 9.55595 20.4043 9.31208C20.3465 9.13419 20.2299 8.98046 20.0731 8.87538C19.9567 8.80109 19.8256 8.75181 19.6886 8.73076C19.4582 8.69248 19.2566 8.69815 19.0694 8.69815C18.6705 8.69815 16.9093 8.71516 16.7696 8.71516C16.571 8.72149 16.3758 8.76832 16.1965 8.8527C15.8869 9.02993 15.7861 9.26813 15.7861 9.26813L15.7573 9.32484L15.74 9.37872C15.74 9.37872 15.3411 10.659 14.9307 11.3169H14.925C14.4411 12.0925 14.0811 12.3973 13.9242 12.4867C13.9069 12.498 13.9126 12.4923 13.9011 12.498C13.8896 12.4583 13.8723 12.4087 13.8622 12.3208C13.8392 12.1152 13.8565 11.8273 13.8565 11.5509C13.8565 10.7753 13.9126 10.2932 13.845 9.83952C13.8209 9.58632 13.7143 9.34758 13.5411 9.15895C13.3536 8.98039 13.1166 8.8605 12.86 8.81441C12.608 8.75345 12.3315 8.70382 11.6676 8.69815C10.8296 8.69248 10.278 8.71516 9.79562 8.93068H9.78842L9.7841 8.93635C9.60523 9.0143 9.443 9.12496 9.30601 9.26245C9.23833 9.32909 9.15913 9.37872 9.10297 9.59565C9.08528 9.67818 9.08458 9.76336 9.1009 9.84616C9.11723 9.92896 9.15025 10.0077 9.19801 10.0777C9.24587 10.1413 9.30672 10.1944 9.37666 10.2335C9.4466 10.2725 9.52408 10.2968 9.6041 10.3046C9.58106 10.3046 9.68186 10.3258 9.76106 10.3655C9.83306 10.3982 9.90218 10.4535 9.91946 10.4761C9.91226 10.4705 9.9857 10.6463 10.0087 10.8136C10.026 10.9795 10.026 11.1128 10.026 11.1128L10.0203 11.1454L10.026 11.1794C10.026 11.1794 10.0591 11.5452 10.0419 11.9209C10.0303 12.1152 10.0087 12.3037 9.97418 12.42C9.97418 12.4257 9.97418 12.4257 9.96986 12.4314C9.8345 12.3364 9.51914 12.0046 9.08569 11.3013C8.68104 10.642 8.30376 9.46804 8.30376 9.46804L8.298 9.43969L8.28792 9.41133C8.28792 9.41133 8.21447 9.15186 7.90487 8.93635C7.61687 8.73785 7.33606 8.70949 7.33606 8.70949L7.2871 8.69815ZM7.16182 9.77855C7.19062 9.78848 7.2583 9.81116 7.26838 9.81684L7.2583 9.77855L7.27414 9.81684C7.25254 9.79982 7.27414 9.81683 7.27414 9.82251C7.29142 9.87213 7.62407 11.0078 8.14679 11.8543C8.62488 12.6299 8.97337 13.0623 9.35641 13.3232C9.73802 13.5784 10.2564 13.5557 10.5142 13.4168C10.8699 13.2395 10.9649 12.946 11.0326 12.7022C11.1003 12.4583 11.1219 12.2088 11.1334 11.9706C11.1486 11.6884 11.1428 11.4055 11.1161 11.1241C11.1161 11.1014 11.1219 10.9256 11.0945 10.6917C11.0736 10.3941 10.9728 10.1073 10.8022 9.86079C11.0441 9.82251 11.1723 9.77288 11.6561 9.77855C12.2753 9.78281 12.3704 9.80691 12.6123 9.86079C12.7477 9.89482 12.7649 9.9175 12.7477 9.90474C12.7361 9.88915 12.7477 9.88347 12.7649 9.98839C12.7937 10.1982 12.7592 10.7356 12.7592 11.5509C12.7592 11.7777 12.7361 12.0982 12.7765 12.4413C12.8153 12.7801 12.9219 13.2112 13.3381 13.4664C13.5742 13.611 14.025 13.6606 14.4527 13.4281C14.8803 13.1899 15.3181 12.7404 15.8581 11.8826C16.3924 11.0291 16.7077 9.91183 16.748 9.79415L16.7524 9.78848H16.7696C16.9713 9.78848 18.6993 9.77855 19.0708 9.77855C19.1716 9.77855 19.2162 9.78281 19.2897 9.78281C19.2609 9.89907 19.222 10.038 19.1442 10.2096C18.9642 10.6208 18.6604 11.151 18.2212 11.7054C17.8381 12.1818 17.5458 12.5306 17.3154 12.8184C17.0908 13.1063 16.9165 13.3331 16.8373 13.6663C16.7653 13.9924 16.905 14.3696 17.1023 14.6021C17.2924 14.8403 17.5343 15.0402 17.8554 15.3167C19.0593 16.3687 19.2566 16.6849 19.2724 16.7175C19.2954 16.7516 19.2782 16.7175 19.2897 16.7345C19.2376 16.7516 19.1848 16.7663 19.1313 16.7785H16.9165C16.9165 16.7785 16.5061 16.7671 16.2023 16.5686C15.8812 16.3631 15.4923 16.0086 15.0992 15.7038C14.9024 15.5493 14.6895 15.4158 14.4642 15.3053C14.201 15.1763 13.8995 15.1446 13.6146 15.216C13.1638 15.355 12.9104 15.7761 12.8326 16.1135C12.7707 16.3574 12.7822 16.5672 12.7822 16.7799H12.0565C10.9419 16.7799 9.7841 16.4467 8.53416 15.1607C6.91413 13.4947 5.46979 10.2649 5.25091 9.77855H7.16182ZM16.7092 9.77855C16.6962 9.78281 16.7236 9.78281 16.748 9.78281C16.748 9.78848 16.748 9.78281 16.7423 9.78848C16.7423 9.77855 16.7192 9.77855 16.7077 9.77855H16.7092Z" fill="currentColor"/>
</symbol>

<symbol id="telegram" viewBox="0 0 28 28">
  <path d="M14.7864 12.2694C13.1548 13.7482 11.5636 15.149 11.5636 15.149C11.5109 15.1948 11.468 15.2504 11.4372 15.3126C11.4064 15.3748 11.3884 15.4423 11.3843 15.5114C11.3802 15.5804 11.3899 15.6496 11.413 15.7149C11.4361 15.7803 11.4721 15.8404 11.519 15.892C11.5658 15.9433 11.6225 15.9849 11.6857 16.0146C11.749 16.0442 11.8175 16.0613 11.8875 16.0649C11.9574 16.0685 12.0274 16.0584 12.0934 16.0353C12.1594 16.0122 12.2201 15.9765 12.2721 15.9303C12.2721 15.9303 16.4467 12.2637 18.2295 10.5084C18.4987 10.2419 18.5837 10.0377 18.5952 9.95404C18.6147 9.86756 18.6109 9.77756 18.5841 9.69299C18.5573 9.60842 18.5085 9.53222 18.4426 9.47197C18.3426 9.36923 18.2054 9.3096 18.061 9.30608C17.9703 9.30041 17.7687 9.33869 17.4922 9.46204C15.9398 10.1795 9.76933 14.2289 9.76933 14.2289C9.71061 14.267 9.66011 14.3162 9.62069 14.3736C9.58128 14.431 9.55374 14.4955 9.53963 14.5633C9.52552 14.6312 9.52513 14.7011 9.53847 14.7692C9.55182 14.8372 9.57864 14.902 9.61741 14.9598C9.65617 15.0176 9.70613 15.0673 9.76441 15.1061C9.8227 15.1449 9.88818 15.172 9.95711 15.1859C10.026 15.1998 10.0971 15.2002 10.1662 15.1871C10.2352 15.1739 10.301 15.1475 10.3597 15.1093C10.3597 15.1093 12.6609 13.5965 14.7864 12.268V12.2694Z" fill="currentColor"/>
<path d="M14.3198 1.36328C7.41776 1.36328 1.81464 6.88015 1.81464 13.6759C1.81464 20.4717 7.41776 25.9885 14.3198 25.9885C21.2218 25.9885 26.8249 20.4717 26.8249 13.6759C26.8249 6.88015 21.2218 1.36328 14.3198 1.36328ZM14.3198 2.41675C17.3521 2.41825 20.2598 3.60496 22.404 5.71614C24.5482 7.82732 25.7535 10.6903 25.755 13.6759C25.7535 16.6616 24.5482 19.5245 22.404 21.6357C20.2598 23.7469 17.3521 24.9336 14.3198 24.9351C11.2874 24.9336 8.37975 23.7469 6.23556 21.6357C4.09137 19.5245 2.8861 16.6616 2.88457 13.6759C2.8861 10.6903 4.09137 7.82732 6.23556 5.71614C8.37975 3.60496 11.2874 2.41825 14.3198 2.41675Z" fill="currentColor"/>
<path d="M9.63397 15.0881L10.7759 18.7489L10.7932 18.7872C10.9113 19.0864 11.0351 19.2636 11.1244 19.3473C11.2828 19.4962 11.4455 19.5302 11.5751 19.5302C11.7666 19.5245 12.069 19.4082 12.1943 18.9701L12.2102 18.8709L12.3787 16.5286L16.896 19.7953C17.3626 20.1441 17.7787 20.2164 18.0941 20.1214C18.421 20.0278 18.7349 19.7301 18.8861 19.1034V19.0921L21.1153 8.75167C21.2506 8.1987 21.1772 7.78753 20.9972 7.55075C20.7826 7.26718 20.3837 7.08002 19.7084 7.25725L19.6522 7.27285L6.55808 12.275C6.53648 12.2864 6.5192 12.2906 6.50192 12.3034C5.87839 12.6295 5.74303 13.0052 5.73871 13.2491C5.73871 13.5752 5.96911 13.8914 6.368 14.0473L6.39968 14.0629L9.63397 15.0881ZM20.113 8.254C20.1087 8.32489 20.0972 8.42414 20.0741 8.51347V8.52481L17.8464 18.8709C17.8235 18.9445 17.7956 19.0165 17.7629 19.0864C17.6845 19.0527 17.6106 19.0098 17.5426 18.9588L17.5311 18.9545L12.2318 15.1164C12.1547 15.0618 12.0645 15.0278 11.9701 15.0178C11.8757 15.0079 11.7803 15.0223 11.6932 15.0597C11.6068 15.1007 11.5327 15.1632 11.4784 15.241C11.4241 15.3189 11.3914 15.4094 11.3836 15.5035L11.2886 16.8051L10.5729 14.5181C10.5477 14.4365 10.5029 14.3622 10.4422 14.3015C10.3815 14.2407 10.3068 14.1954 10.2244 14.1693L7.13121 13.1881L20.0065 8.2696C20.041 8.25906 20.0769 8.2538 20.113 8.254Z" fill="currentColor"/>
<path d="M11.9294 19.3969L14.2521 17.4205C14.3596 17.3295 14.426 17.2001 14.4367 17.0609C14.4474 16.9217 14.4014 16.7841 14.309 16.6782C14.2166 16.5724 14.0852 16.507 13.9439 16.4965C13.8025 16.486 13.6627 16.5312 13.5552 16.6222L11.231 18.6001C11.1569 18.6599 11.1002 18.7381 11.0668 18.8265C11.0335 18.9149 11.0245 19.0105 11.0409 19.1035C11.0602 19.1949 11.1029 19.2799 11.1649 19.3506C11.2269 19.4213 11.3061 19.4753 11.3951 19.5075C11.5809 19.5685 11.7839 19.5246 11.9279 19.3969H11.9294Z" fill="currentColor"/>
</symbol>

<symbol id="slider-github" viewBox="0 0 23 24">
  <path d="M11.5 0.539229C5.17953 0.539229 0 5.82749 0 12.2252C0 18.5857 5.13232 23.8202 11.5 23.8202C17.8598 23.8202 23 18.5935 23 12.2252C23 5.82749 17.8205 0.539229 11.5 0.539229ZM13.5215 22.2514C12.8747 22.3878 12.1873 22.4561 11.5 22.4561C10.8127 22.4561 10.1253 22.3878 9.47852 22.2514V19.0594C9.47852 18.2955 9.68066 18.0227 9.9502 17.6543C10.0874 17.4955 10.1702 17.353 10.7856 16.4131L9.74805 16.2493C7.07958 15.8538 6.02848 14.4486 5.61067 13.3573C5.07161 11.8978 5.35465 10.0698 6.32504 8.91043C6.47331 8.73299 6.59457 8.43282 6.48682 8.11914C6.2845 7.49161 6.31152 6.49588 6.44629 6.11382C7.16083 6.21719 7.89555 6.73531 8.50831 7.10973C8.79065 7.27651 8.93875 7.23246 9.07422 7.24614C9.5666 7.14241 10.3347 6.89143 11.5135 6.89143C12.2412 6.89143 13.0094 7.00049 13.7642 7.21879C13.8991 7.21559 14.116 7.33175 14.4919 7.10973C15.1324 6.7147 15.8422 6.21435 16.5537 6.11382C16.6885 6.49588 16.7155 7.49161 16.5134 8.11914C16.4054 8.43282 16.5267 8.73299 16.6751 8.91043C17.6453 10.0699 17.9284 11.8978 17.3893 13.3573C16.9715 14.4486 15.9204 15.8538 13.252 16.2493L12.2144 16.4131C12.8505 17.3847 12.9175 17.5012 13.05 17.6543C13.3193 18.0227 13.5215 18.2955 13.5215 19.0594V22.2514ZM14.8691 21.8559V19.0594C14.8691 18.2818 14.7074 17.7635 14.4917 17.3815C16.5402 16.8223 17.9958 15.5944 18.6426 13.8348C19.3299 11.9797 19.02 9.76976 17.8743 8.24187C18.0767 7.32802 18.0767 5.86835 17.5915 5.18629C17.3758 4.88629 17.0793 4.72252 16.702 4.72252C16.6885 4.72252 16.6885 4.72252 16.6885 4.72252C15.6435 4.77972 14.8211 5.3124 13.9393 5.85467C13.1307 5.63637 12.3086 5.52732 11.4865 5.52732C10.651 5.52732 9.81543 5.65005 9.07439 5.85467C8.14613 5.28806 7.33157 4.7783 6.25765 4.72252C5.92074 4.72252 5.62418 4.88629 5.40852 5.18629C4.92351 5.86835 4.92351 7.32802 5.12566 8.24187C3.97997 9.76976 3.67008 11.9932 4.35742 13.8348C5.00423 15.5944 6.4598 16.8223 8.50831 17.3815C8.34108 17.6776 8.20877 18.0596 8.15665 18.5767C7.74288 18.7211 7.38403 18.7681 7.05028 18.6688C6.69827 18.5635 6.424 18.3257 6.18571 17.92C5.65051 17.0099 4.73891 16.2669 3.70097 16.3635L3.81941 17.7223C4.30004 17.6777 4.77839 18.1925 5.02686 18.6168C5.43678 19.3156 5.989 19.7738 6.66862 19.977C7.17311 20.1275 7.63426 20.1239 8.13086 20.0166V21.8559C4.20914 20.4644 1.34766 16.6722 1.34766 12.2252C1.34766 6.57776 5.92074 1.90335 11.5 1.90335C17.0793 1.90335 21.6523 6.57776 21.6523 12.2252C21.6523 16.6722 18.7909 20.4644 14.8691 21.8559Z" fill="currentColor"/>
</symbol>

<symbol id="slider-demo" viewBox="0 0 23 22">
  <path d="M9.879 19.976h3.247c.193 0 .35.15.35.335 0 .185-.157.33-.35.33H9.88a.363.363 0 0 1-.247-.095.332.332 0 0 1-.104-.235c0-.184.157-.335.35-.335Zm13.116.335c0 .92-.782 1.664-1.743 1.664h-19.5c-.461 0-.903-.175-1.23-.486a1.631 1.631 0 0 1-.513-1.173 9.754 9.754 0 0 1 .045-1.5l1.82-3.033V4.323c0-.92.777-1.663 1.734-1.668H6.75A5.36 5.36 0 0 1 8.757.73a5.667 5.667 0 0 1 2.747-.704c1.963 0 3.773 1.001 4.752 2.63h3.14c.961.004 1.739.747 1.739 1.667v11.46l1.814 3.03c.05.498.068 1 .046 1.503v-.005ZM10.206 9.586c.073.02.138.063.183.121.046.058.07.13.07.202v1.628c.565.047 1.387-.176 1.39.335.01.512-.825.289-1.39.33v1.001a.96.96 0 0 0 .064.397c.05.127.125.243.223.34.098.098.215.176.345.23a1.087 1.087 0 0 0 1.168-.23.962.962 0 0 0 .288-.737V9.91c0-.15.103-.284.256-.322a4.756 4.756 0 0 0 2.684-1.893c.627-.92.887-2.025.73-3.112a4.501 4.501 0 0 0-1.59-2.805A4.89 4.89 0 0 0 11.502.66a4.89 4.89 0 0 0-3.124 1.118 4.501 4.501 0 0 0-1.59 2.805 4.4 4.4 0 0 0 .73 3.112 4.756 4.756 0 0 0 2.685 1.893l.003-.002Zm-7.641 5.956h17.874V4.322c0-.55-.467-.992-1.037-.997h-2.818a5.04 5.04 0 0 1-.156 4.096 5.28 5.28 0 0 1-1.303 1.677c-.547.47-1.187.83-1.883 1.06v3.05c0 .04-.008.073-.008.112h4.888V6.097a.33.33 0 0 1 .113-.214.359.359 0 0 1 .47 0 .33.33 0 0 1 .113.214v7.554c0 .185-.157.33-.35.33h-5.436c-.15.264-.37.484-.64.637a1.799 1.799 0 0 1-1.78 0 1.699 1.699 0 0 1-.64-.637H4.538a.356.356 0 0 1-.245-.096.327.327 0 0 1-.1-.234V6.097a.324.324 0 0 1 .107-.222.354.354 0 0 1 .238-.091c.188 0 .341.137.35.313v7.218h4.888c0-.038-.014-.072-.014-.11v-3.052a5.556 5.556 0 0 1-1.883-1.06 5.28 5.28 0 0 1-1.302-1.677 5.03 5.03 0 0 1-.152-4.094H3.617c-.575 0-1.043.447-1.043.997l-.01 11.223ZM.957 18.644h21.086l-1.456-2.441H2.417l-1.46 2.44Zm21.343.667H.705v.996a.98.98 0 0 0 .307.704c.195.187.46.292.736.293h19.504c.575 0 1.043-.447 1.043-.997l.005-.996ZM11.505 1.99a3.44 3.44 0 0 1 2.311.979 3.15 3.15 0 0 1 .95 2.241c0 .837-.341 1.64-.95 2.242a3.44 3.44 0 0 1-2.311.978 3.445 3.445 0 0 1-2.345-.963 3.152 3.152 0 0 1-.966-2.26 3.153 3.153 0 0 1 .968-2.255 3.445 3.445 0 0 1 2.343-.962Zm0 5.775a2.73 2.73 0 0 0 1.827-.78 2.5 2.5 0 0 0 .75-1.775 2.5 2.5 0 0 0-.75-1.775 2.73 2.73 0 0 0-1.827-.78 2.732 2.732 0 0 0-1.854.766 2.5 2.5 0 0 0-.765 1.786c0 .67.274 1.312.764 1.79.49.479 1.155.754 1.855.768Z" fill="currentColor"/>
</symbol>

</svg>
